<svg width="434" height="272" fill="none" xmlns="http://www.w3.org/2000/svg"><g clip-path="url(#a)"><path d="M0 8a8 8 0 0 1 8-8h426v272H0V8Z" fill="#fff"/><path d="M188.159 54.762c-1.54 0-2.659-.355-3.358-1.066-.687-.722-1.03-1.764-1.03-3.127v-5.773h2.665v5.916c0 .627.136 1.107.408 1.439.285.32.723.48 1.315.48s1.025-.16 1.297-.48c.284-.332.426-.812.426-1.44v-5.915h2.665v5.773c0 1.362-.349 2.405-1.048 3.127-.687.71-1.8 1.066-3.34 1.066Zm10.212 0a9.968 9.968 0 0 1-2.115-.23 7.52 7.52 0 0 1-1.865-.658l.746-2.114c.237.13.521.266.853.408.332.142.693.261 1.084.356.39.094.787.142 1.19.142.474 0 .829-.065 1.066-.196a.691.691 0 0 0 .373-.64.623.623 0 0 0-.249-.514c-.154-.143-.385-.273-.693-.391a15.25 15.25 0 0 0-1.101-.409 9.913 9.913 0 0 1-1.617-.728c-.45-.26-.799-.58-1.048-.96-.237-.379-.355-.852-.355-1.42 0-.652.166-1.185.497-1.6.332-.414.8-.722 1.404-.923.604-.214 1.308-.32 2.114-.32.663 0 1.261.053 1.794.16.533.106.948.242 1.244.408v2.097a5.463 5.463 0 0 0-.8-.285 8.104 8.104 0 0 0-1.048-.23 5.599 5.599 0 0 0-1.066-.107c-.485 0-.853.065-1.101.195-.249.13-.373.314-.373.55 0 .19.083.35.248.48.178.13.433.255.764.374.332.106.729.242 1.191.408a8.09 8.09 0 0 1 1.563.71c.426.261.746.581.959.96.225.38.338.847.338 1.404a3.21 3.21 0 0 1-.373 1.51c-.237.462-.646.84-1.226 1.137-.58.284-1.38.426-2.398.426Zm-4.721-11.316v-1.12l1.794-.746h6.343v1.866h-8.137Zm15.124 11.316c-1.078 0-1.955-.16-2.63-.48-.663-.331-1.148-.81-1.456-1.438-.308-.628-.462-1.398-.462-2.31v-5.738h2.647v5.88c0 .651.148 1.143.444 1.475.308.331.805.497 1.492.497.663 0 1.137-.154 1.421-.462.285-.32.427-.823.427-1.51v-5.88h2.647v5.738c0 .912-.154 1.682-.462 2.31-.308.627-.794 1.107-1.457 1.438-.663.32-1.534.48-2.611.48Zm1.137-4.104c-.557 0-1.001-.089-1.333-.266-.32-.19-.545-.427-.675-.71a2.194 2.194 0 0 1-.195-.889c0-.213.029-.438.089-.675.059-.237.148-.427.266-.569l1.581.32a1.269 1.269 0 0 0-.089.249 1.89 1.89 0 0 0-.017.249c0 .154.047.29.142.408.094.107.225.16.391.16h4.263v1.723h-4.423Zm.819-7.212c-.556 0-.995-.083-1.314-.25-.32-.165-.545-.372-.675-.621a1.675 1.675 0 0 1-.214-.817c0-.202.03-.415.089-.64.059-.237.148-.456.267-.657l1.936.249a1.748 1.748 0 0 0-.053.266.834.834 0 0 0-.036.231c0 .166.054.296.16.39.095.084.261.125.498.125h3.819v1.724h-4.477Zm5.608 11.085v-9.735h1.955l.355 1.528h.142c.201-.486.551-.889 1.048-1.209.498-.331 1.143-.497 1.937-.497.758 0 1.385.136 1.883.409.497.26.87.663 1.119 1.208.261.533.391 1.208.391 2.025v6.271h-2.665v-5.738c0-.663-.136-1.137-.409-1.421-.26-.296-.645-.444-1.154-.444-.415 0-.77.112-1.066.337-.285.225-.504.557-.658.995-.142.426-.213.965-.213 1.617v4.654h-2.665Zm15.835 0v-2.967c0-.746.148-1.32.444-1.723.296-.403.717-.687 1.262-.853l.018-.07-1.901-.694v-.461c0-.58.171-1.114.515-1.6.343-.485.847-.87 1.51-1.154.675-.296 1.492-.444 2.452-.444.9 0 1.675.142 2.327.426.651.273 1.155.687 1.51 1.244.367.544.551 1.237.551 2.078v6.218h-2.665v-6.058c0-.592-.16-1.036-.48-1.332-.308-.296-.746-.444-1.315-.444-.544 0-.953.118-1.225.355a1.156 1.156 0 0 0-.445.835l1.582.728-.196 1.155c-.426.024-.746.178-.959.462-.213.284-.32.67-.32 1.155v3.144h-2.665Zm13.751 0v-6.43c0-.498-.118-.86-.355-1.085-.225-.225-.598-.337-1.119-.337-.391 0-.752.053-1.084.16-.32.106-.622.237-.906.39v-2.131c.261-.119.628-.237 1.101-.356.474-.118 1.031-.177 1.67-.177.652 0 1.226.095 1.724.284.509.19.906.51 1.19.96.296.438.444 1.042.444 1.811v6.911h-2.665Zm8.485.231a9.968 9.968 0 0 1-2.115-.23 7.52 7.52 0 0 1-1.865-.658l.746-2.114c.237.13.521.266.853.408.332.142.693.261 1.084.356.391.094.787.142 1.19.142.474 0 .829-.065 1.066-.196a.691.691 0 0 0 .373-.64.623.623 0 0 0-.249-.514c-.154-.143-.385-.273-.693-.391a15.25 15.25 0 0 0-1.101-.409 9.913 9.913 0 0 1-1.617-.728c-.45-.26-.799-.58-1.048-.96-.237-.379-.355-.852-.355-1.42 0-.652.166-1.185.497-1.6.332-.414.8-.722 1.404-.923.604-.214 1.308-.32 2.114-.32.663 0 1.261.053 1.794.16.533.106.948.242 1.244.408v2.097a5.463 5.463 0 0 0-.8-.285 8.067 8.067 0 0 0-1.048-.23 5.599 5.599 0 0 0-1.066-.107c-.485 0-.853.065-1.101.195-.249.13-.373.314-.373.55 0 .19.083.35.248.48.178.13.433.255.764.374.332.106.729.242 1.191.408a8.09 8.09 0 0 1 1.563.71c.426.261.746.581.959.96.225.38.338.847.338 1.404a3.21 3.21 0 0 1-.373 1.51c-.237.462-.646.84-1.226 1.137-.58.284-1.38.426-2.398.426Zm5.855-.23v-5.775c0-1.362.361-2.398 1.083-3.109.723-.722 1.866-1.083 3.429-1.083 1.575 0 2.712.361 3.411 1.083.711.711 1.066 1.747 1.066 3.11v5.773h-2.647v-5.81c0-.627-.148-1.118-.444-1.474-.284-.367-.758-.55-1.421-.55-.652 0-1.125.183-1.422.55-.284.356-.426.847-.426 1.475v1.545l.053.018c.225-.462.492-.764.8-.906.32-.154.752-.23 1.297-.23h.408v1.989h-.408c-.592 0-1.043.1-1.35.302a1.565 1.565 0 0 0-.64.8c-.107.32-.16.68-.16 1.083v1.208h-2.629Zm3.351-11.069v-.888c.166-.047.35-.113.551-.195a1.78 1.78 0 0 0 .533-.338.695.695 0 0 0 .231-.533.531.531 0 0 0-.142-.39.483.483 0 0 0-.356-.143.96.96 0 0 0-.302.053 3.743 3.743 0 0 0-.284.107l-.337-1.19c.236-.202.533-.332.888-.391.343-.071.634-.107.87-.107.533 0 .954.125 1.262.373.296.249.444.616.444 1.102 0 .26-.065.503-.196.728a1.551 1.551 0 0 1-.639.55l-.071-.461h3.358v1.723h-5.81Zm10.71 11.068v-6.43c0-.498-.118-.86-.355-1.085-.225-.225-.598-.337-1.12-.337-.39 0-.752.053-1.083.16-.32.106-.622.237-.906.39v-2.131c.26-.119.627-.237 1.101-.356.474-.118 1.031-.177 1.67-.177.652 0 1.226.095 1.723.284.51.19.906.51 1.191.96.296.438.444 1.042.444 1.811v6.911h-2.665Zm8.484.231a9.966 9.966 0 0 1-2.114-.23 7.505 7.505 0 0 1-1.865-.658l.746-2.114c.237.13.521.266.853.408.331.142.693.261 1.083.356.391.094.788.142 1.191.142.473 0 .829-.065 1.066-.196a.693.693 0 0 0 .373-.64.623.623 0 0 0-.249-.514c-.154-.143-.385-.273-.693-.391a15.25 15.25 0 0 0-1.101-.409 9.913 9.913 0 0 1-1.617-.728c-.45-.26-.799-.58-1.048-.96-.237-.379-.355-.852-.355-1.42 0-.652.165-1.185.497-1.6.332-.414.799-.722 1.403-.923.604-.214 1.309-.32 2.115-.32.663 0 1.261.053 1.794.16.533.106.947.242 1.243.408v2.097a5.403 5.403 0 0 0-.799-.285 8.104 8.104 0 0 0-1.048-.23 5.607 5.607 0 0 0-1.066-.107c-.486 0-.853.065-1.102.195-.248.13-.373.314-.373.55 0 .19.083.35.249.48.178.13.432.255.764.374.332.106.728.242 1.19.408a8.1 8.1 0 0 1 1.564.71c.426.261.746.581.959.96.225.38.338.847.338 1.404a3.2 3.2 0 0 1-.374 1.51c-.236.462-.645.84-1.225 1.137-.581.284-1.38.426-2.399.426Zm.796 4.406v-1.581c0-.296-.131-.444-.391-.444a.903.903 0 0 0-.356.07l-.124-1.278a5.2 5.2 0 0 1 .693-.178c.284-.06.574-.089.87-.089.581 0 .989.113 1.226.338.237.237.356.556.356.96v2.202h-2.274Zm.062-15.722v-4.033h2.452v4.033h-2.452Zm6.667 11.085-2.824-9.735h2.682l2.15 7.586h.107a.97.97 0 0 0 .533-.16c.165-.107.307-.249.426-.427a3.56 3.56 0 0 0 .533-1.172c.118-.462.178-.918.178-1.368 0-.794-.154-1.404-.462-1.83-.296-.426-.711-.64-1.244-.64-.107 0-.207.006-.302.018a.746.746 0 0 0-.231.071l-.497-2.043c.272-.083.527-.13.764-.142.248-.024.45-.035.604-.035.627 0 1.172.082 1.634.248a3.17 3.17 0 0 1 1.19.746c.415.403.723.906.924 1.51.213.605.32 1.286.32 2.044 0 .959-.154 1.8-.462 2.522-.296.71-.657 1.274-1.084 1.688-.355.343-.805.616-1.35.817-.533.202-1.267.302-2.203.302h-1.386Zm11.216.178c-.533 0-.983-.083-1.351-.249a1.768 1.768 0 0 1-.834-.746c-.19-.343-.285-.77-.285-1.28v-7.638h2.665v7.32c0 .224.047.39.142.497.107.106.267.16.48.16.095 0 .195-.012.302-.036.107-.024.207-.053.302-.089l.249 1.706c-.225.118-.48.207-.764.266-.285.06-.587.089-.906.089Zm6.589.053a9.959 9.959 0 0 1-2.114-.23 7.505 7.505 0 0 1-1.865-.658l.746-2.114c.237.13.521.266.853.408a6.8 6.8 0 0 0 1.083.356c.391.094.788.142 1.191.142.473 0 .829-.065 1.066-.196a.693.693 0 0 0 .373-.64.623.623 0 0 0-.249-.514c-.154-.143-.385-.273-.693-.391a15.25 15.25 0 0 0-1.101-.409 9.913 9.913 0 0 1-1.617-.728c-.45-.26-.8-.58-1.048-.96-.237-.379-.356-.852-.356-1.42 0-.652.166-1.185.498-1.6.331-.414.799-.722 1.403-.923.604-.214 1.309-.32 2.114-.32.664 0 1.262.053 1.795.16.533.106.947.242 1.243.408v2.097a5.403 5.403 0 0 0-.799-.285 8.104 8.104 0 0 0-1.048-.23 5.607 5.607 0 0 0-1.066-.107c-.486 0-.853.065-1.102.195-.248.13-.373.314-.373.55 0 .19.083.35.249.48.178.13.432.255.764.374.332.106.728.242 1.19.408a8.1 8.1 0 0 1 1.564.71c.426.261.746.581.959.96.225.38.337.847.337 1.404 0 .533-.124 1.036-.373 1.51-.236.462-.645.84-1.225 1.137-.581.284-1.38.426-2.399.426Zm-4.702-11.316v-1.12l1.794-.746h6.342v1.866h-8.136Zm3.73-1.084v-2.008h1.688v2.008h-1.688Zm2.736 0v-2.008h1.67v2.008h-1.67Zm7.964 12.4c-1.445 0-2.517-.35-3.215-1.048-.699-.71-1.048-1.759-1.048-3.145 0-.236.005-.52.017-.852.024-.344.054-.646.089-.906h4.264v1.688h-1.759v.248c0 .474.059.865.178 1.173.118.296.296.515.533.657.248.142.556.213.923.213.403 0 .741-.089 1.013-.266.284-.178.498-.48.64-.906.154-.427.231-1.013.231-1.76 0-.698-.083-1.278-.249-1.74-.154-.474-.421-.83-.8-1.066-.367-.237-.876-.355-1.527-.355a5.15 5.15 0 0 0-1.102.124c-.379.071-.74.166-1.084.284a5.487 5.487 0 0 0-.87.391v-2.22c.261-.143.58-.267.959-.374.391-.106.812-.19 1.262-.248.45-.06.894-.09 1.332-.09 1.149 0 2.073.214 2.772.64a3.602 3.602 0 0 1 1.545 1.777c.332.77.498 1.682.498 2.736 0 1.078-.16 1.995-.48 2.753a3.418 3.418 0 0 1-1.475 1.706c-.675.39-1.557.586-2.647.586Zm8.328-.23-2.824-9.736h2.682l2.15 7.586h.106c.19 0 .368-.054.533-.16.166-.107.308-.249.427-.427a3.56 3.56 0 0 0 .533-1.172c.118-.462.177-.918.177-1.368 0-.794-.154-1.404-.462-1.83-.296-.426-.71-.64-1.243-.64-.107 0-.207.006-.302.018a.746.746 0 0 0-.231.071l-.498-2.043c.273-.083.528-.13.764-.142.249-.024.45-.035.604-.035.628 0 1.173.082 1.635.248a3.17 3.17 0 0 1 1.19.746c.415.403.723.906.924 1.51.213.605.32 1.286.32 2.044 0 .959-.154 1.8-.462 2.522-.296.71-.657 1.274-1.084 1.688-.355.343-.805.616-1.35.817-.533.202-1.267.302-2.203.302h-1.386Zm13.894 0v-4.087h-1.013v-1.634h3.411v3.695h.125c.391 0 .722-.107.995-.32.284-.213.497-.527.639-.941.142-.427.213-.96.213-1.6 0-.734-.106-1.314-.319-1.74-.202-.438-.504-.752-.906-.942-.403-.19-.901-.284-1.493-.284-.616 0-1.172.089-1.67.266a6.582 6.582 0 0 0-1.332.604v-2.22c.391-.202.882-.38 1.474-.533.593-.154 1.274-.231 2.043-.231 1.149 0 2.079.183 2.79.55a3.43 3.43 0 0 1 1.599 1.67c.343.747.515 1.682.515 2.807 0 1.055-.16 1.955-.48 2.7a3.28 3.28 0 0 1-1.528 1.67c-.699.38-1.634.57-2.807.57h-2.256Zm4.787-10.696c-.676 0-1.214-.154-1.617-.462-.403-.308-.604-.74-.604-1.297 0-.556.201-.988.604-1.296.403-.308.941-.462 1.617-.462.675 0 1.219.154 1.634.462.403.308.604.74.604 1.297 0 .556-.201.988-.604 1.296-.415.308-.959.462-1.634.462Zm0-1.03c.26 0 .461-.065.604-.195.142-.13.213-.308.213-.533 0-.226-.071-.403-.213-.533-.143-.13-.344-.196-.604-.196-.249 0-.445.065-.587.196-.142.13-.213.307-.213.532 0 .226.071.403.213.534.142.13.338.195.587.195Zm6.913 11.725v-6.43c0-.498-.118-.86-.355-1.085-.225-.225-.598-.337-1.119-.337-.391 0-.752.053-1.084.16-.32.106-.622.237-.906.39v-2.131c.261-.119.628-.237 1.102-.356.473-.118 1.03-.177 1.669-.177.652 0 1.226.095 1.724.284.509.19.906.51 1.19.96.296.438.444 1.042.444 1.811v6.911h-2.665Zm5.056 0v-2.967c0-.746.148-1.32.444-1.723.296-.403.717-.687 1.261-.853l.018-.07-1.901-.694v-.461c0-.58.172-1.114.515-1.6.344-.485.847-.87 1.511-1.154.675-.296 1.492-.444 2.451-.444.9 0 1.676.142 2.327.426.652.273 1.155.687 1.511 1.244.367.544.55 1.237.55 2.078v6.218h-2.665v-6.058c0-.592-.159-1.036-.479-1.332-.308-.296-.746-.444-1.315-.444-.545 0-.953.118-1.226.355-.272.225-.42.503-.444.835l1.581.728-.195 1.155c-.427.024-.746.178-.959.462-.214.284-.32.67-.32 1.155v3.144h-2.665Zm5.813-11.085c-.557 0-.995-.083-1.315-.25-.32-.165-.545-.372-.675-.621a1.685 1.685 0 0 1-.213-.817c0-.202.029-.415.088-.64.06-.237.149-.456.267-.657l1.936.249a1.878 1.878 0 0 0-.053.266.83.83 0 0 0-.035.231c0 .166.053.296.159.39.095.084.261.125.498.125h3.82v1.724h-4.477Zm8.862 11.263c-.96 0-1.724-.207-2.292-.622-.569-.426-.977-1.007-1.226-1.74-.249-.747-.373-1.6-.373-2.56 0-1.03.113-1.882.338-2.557.236-.687.568-1.22.994-1.6.427-.39.93-.663 1.511-.817a7.153 7.153 0 0 1 1.936-.248c1.066 0 1.919.148 2.558.444.64.296 1.102.716 1.386 1.261.296.545.444 1.185.444 1.919v6.342h-2.665v-6.129c0-.556-.136-.977-.408-1.261-.261-.296-.699-.444-1.315-.444-.415 0-.782.088-1.101.266-.308.166-.551.468-.729.906-.166.438-.249 1.066-.249 1.883 0 .557.054 1.048.16 1.475.107.426.279.758.516.995.248.237.58.355.994.355.131 0 .255-.006.373-.018.131-.023.243-.047.338-.07l.249 1.989c-.19.083-.421.142-.693.178a5.535 5.535 0 0 1-.746.053Z" fill="#0A2540"/><rect x="182.527" y="71.191" width="596.925" height="39.319" rx="7.106" fill="#fff"/><path fill-rule="evenodd" clip-rule="evenodd" d="M212.73 90.85a7.106 7.106 0 1 1-14.212 0 7.106 7.106 0 1 1 14.212 0Zm-3.111-2.669a.888.888 0 0 0-1.256 0l-3.627 3.634-1.593-1.593a.888.888 0 1 0-1.256 1.256l2.22 2.221a.89.89 0 0 0 1.257 0l4.255-4.262a.888.888 0 0 0 0-1.256Z" fill="#15BE53"/><g filter="url(#b)"><path fill="#fff" d="M228.719 71.19h536.522v39.32H228.719z"/><path d="M230.149 95.85v-2.86h-.709v-1.144h2.388v2.586h.087c.273 0 .506-.074.696-.223.199-.15.348-.37.448-.66.099-.298.149-.671.149-1.119 0-.514-.074-.92-.224-1.219a1.295 1.295 0 0 0-.634-.659c-.282-.132-.63-.199-1.045-.199-.431 0-.82.063-1.169.187a4.582 4.582 0 0 0-.932.423v-1.555a5.029 5.029 0 0 1 1.032-.373 5.701 5.701 0 0 1 1.43-.161c.804 0 1.455.128 1.953.385.505.257.878.647 1.119 1.169.24.522.36 1.177.36 1.965 0 .738-.112 1.368-.335 1.89a2.297 2.297 0 0 1-1.07 1.17c-.489.264-1.144.397-1.965.397h-1.579Zm8.7.125c-.672 0-1.206-.146-1.604-.436-.398-.298-.684-.704-.858-1.219-.174-.522-.261-1.119-.261-1.79 0-.722.078-1.319.236-1.791.166-.48.398-.854.696-1.12a2.484 2.484 0 0 1 1.057-.571 5.023 5.023 0 0 1 1.356-.174c.746 0 1.343.103 1.791.31.447.208.771.502.97.883.207.382.31.83.31 1.344v4.44h-1.865V91.56c0-.39-.095-.684-.286-.883-.182-.208-.489-.311-.92-.311-.29 0-.547.062-.771.186-.216.116-.386.328-.51.635-.116.306-.174.746-.174 1.318 0 .39.037.734.112 1.032.074.298.195.53.36.696.174.166.407.25.697.25.091 0 .178-.005.261-.013.091-.017.17-.034.236-.05l.174 1.393c-.132.058-.294.1-.485.124a3.855 3.855 0 0 1-.522.038Zm5.382-.125v-6.815h1.368l.249 1.07h.099a1.84 1.84 0 0 1 .734-.846c.348-.232.8-.348 1.356-.348.53 0 .97.095 1.318.286.348.182.609.464.783.846.183.373.274.845.274 1.417v4.39h-1.866v-4.017c0-.464-.095-.796-.286-.995-.182-.207-.451-.31-.808-.31-.29 0-.539.078-.746.236-.199.157-.352.39-.46.696-.1.299-.149.676-.149 1.132v3.258h-1.866Zm8.948-4.017c-.381 0-.684-.058-.907-.174a1.088 1.088 0 0 1-.485-.46c-.1-.199-.15-.406-.15-.622 0-.14.021-.286.063-.435a1.96 1.96 0 0 1 .186-.46l1.356.174c-.017.058-.034.12-.05.187a1.76 1.76 0 0 0-.013.21c0 .109.034.196.1.262.066.058.182.087.348.087h1.405v1.231h-1.853Zm0 3.482c-.381 0-.684-.058-.907-.174a1.087 1.087 0 0 1-.485-.46c-.1-.199-.15-.406-.15-.622 0-.14.021-.286.063-.435a1.96 1.96 0 0 1 .186-.46l1.356.174c-.017.058-.034.12-.05.187a1.76 1.76 0 0 0-.013.211c0 .108.034.195.1.261.066.058.182.087.348.087h1.405v1.231h-1.853Zm5.067.66c-.373 0-.688-.059-.945-.175a1.243 1.243 0 0 1-.585-.522c-.132-.24-.199-.539-.199-.895v-5.348h1.866v5.124c0 .157.033.273.099.348.075.075.187.112.336.112a.975.975 0 0 0 .211-.025c.075-.016.145-.037.212-.062l.174 1.194a2.042 2.042 0 0 1-.535.186c-.199.042-.41.063-.634.063Zm5.173.037c-1.078 0-1.861-.249-2.35-.746-.481-.506-.722-1.236-.722-2.19v-4.04h1.866v4.14c0 .44.095.775.286 1.008.199.224.505.335.92.335.415 0 .717-.112.908-.335.199-.233.298-.568.298-1.008v-4.14h1.866v4.04c0 .954-.245 1.684-.734 2.19-.481.497-1.26.746-2.338.746Zm-2.778-7.922v-.783l1.256-.523h4.439v1.306h-5.695Zm4.104-.758v-1.406h1.591v1.406h-1.591Zm6.096 8.68c-.747 0-1.343-.087-1.791-.261-.448-.183-.775-.436-.983-.759a2.091 2.091 0 0 1-.298-1.12c0-.364.054-.658.162-.882a1.33 1.33 0 0 1 .435-.51c.182-.124.365-.207.547-.249v-.074a2.4 2.4 0 0 1-.547-.274 1.409 1.409 0 0 1-.435-.472c-.108-.2-.162-.448-.162-.747 0-.306.07-.593.211-.858.15-.265.386-.477.709-.634.324-.166.751-.249 1.281-.249.257 0 .506.021.746.063.241.033.427.082.56.149l-.286 1.256a2.848 2.848 0 0 0-.274-.05 1.482 1.482 0 0 0-.335-.037c-.258 0-.448.062-.573.186a.6.6 0 0 0-.186.46c0 .2.054.353.162.46a.857.857 0 0 0 .41.224c.174.042.352.063.535.063h.261v1.156h-.261c-.357 0-.626.062-.809.187-.174.124-.261.327-.261.609 0 .15.033.298.1.448a.919.919 0 0 0 .373.36c.174.092.423.137.746.137.307 0 .547-.045.721-.137a.826.826 0 0 0 .373-.36c.075-.158.112-.332.112-.523v-4.539h1.866v4.477c0 .854-.253 1.484-.759 1.89-.497.407-1.281.61-2.35.61Zm7.039-.037c-.505 0-.932-.096-1.281-.287a1.942 1.942 0 0 1-.783-.883c-.174-.39-.261-.866-.261-1.43v-4.34h1.865v4.017c0 .456.091.788.274.995.182.207.447.31.796.31.439 0 .779-.165 1.019-.497.241-.34.361-.862.361-1.567v-3.258h1.865v6.815h-1.417l-.199-1.044h-.112c-.141.331-.386.609-.734.833-.34.224-.804.336-1.393.336Zm6.137-.125v-2.86h-.709v-1.144h2.388v2.586h.087c.274 0 .506-.074.697-.223.198-.15.348-.37.447-.66.1-.298.149-.671.149-1.119 0-.514-.074-.92-.223-1.219a1.297 1.297 0 0 0-.635-.659c-.282-.132-.63-.199-1.044-.199-.431 0-.821.063-1.169.187a4.617 4.617 0 0 0-.933.423v-1.555a5.073 5.073 0 0 1 1.032-.373 5.707 5.707 0 0 1 1.43-.161c.805 0 1.455.128 1.953.385.506.257.879.647 1.119 1.169s.361 1.177.361 1.965c0 .738-.112 1.368-.336 1.89a2.297 2.297 0 0 1-1.07 1.17c-.489.264-1.144.397-1.964.397h-1.58Zm2.667-7.76c-.39 0-.697-.058-.92-.174-.224-.116-.382-.261-.473-.435a1.184 1.184 0 0 1-.149-.572c0-.141.02-.29.062-.448.041-.166.104-.32.186-.46l1.356.174c-.017.058-.029.12-.037.187a.575.575 0 0 0-.025.161c0 .116.037.207.112.274.066.058.182.087.348.087h2.674v1.206h-3.134Zm5.896 7.885c-.671 0-1.206-.146-1.604-.436-.398-.298-.684-.704-.858-1.219-.174-.522-.261-1.119-.261-1.79 0-.722.079-1.319.236-1.791.166-.48.398-.854.697-1.12a2.478 2.478 0 0 1 1.057-.571 5.01 5.01 0 0 1 1.355-.174c.746 0 1.343.103 1.791.31.448.208.771.502.97.883.207.382.311.83.311 1.344v4.44h-1.865V91.56c0-.39-.096-.684-.286-.883-.183-.208-.49-.311-.921-.311-.29 0-.547.062-.771.186-.215.116-.385.328-.51.635-.116.306-.174.746-.174 1.318 0 .39.038.734.112 1.032.075.298.195.53.361.696.174.166.406.25.696.25.091 0 .179-.005.261-.013.092-.017.17-.034.237-.05l.174 1.393c-.133.058-.295.1-.485.124a3.88 3.88 0 0 1-.523.038Zm7.895 0c-.738 0-1.314-.15-1.729-.448-.406-.307-.692-.73-.858-1.269-.158-.547-.236-1.181-.236-1.902 0-.805.078-1.46.236-1.965.158-.506.394-.88.709-1.12.323-.24.717-.36 1.181-.36.29 0 .543.058.759.174.224.108.402.31.535.61h.049c.116-.307.307-.515.572-.622.266-.108.552-.162.858-.162.573 0 1 .153 1.281.46.291.307.436.754.436 1.343v5.136h-1.866v-4.788c0-.257-.041-.43-.124-.522a.432.432 0 0 0-.336-.137c-.157 0-.278.046-.361.137-.074.091-.124.244-.149.46h-.733c-.034-.24-.096-.398-.187-.472a.464.464 0 0 0-.323-.125c-.208 0-.369.15-.485.448-.108.298-.162.804-.162 1.517 0 .464.033.862.099 1.194.075.323.199.572.374.746.174.166.422.249.746.249.099 0 .19-.004.273-.013.083-.016.154-.037.212-.062l.186 1.33c-.132.059-.277.1-.435.125a3.365 3.365 0 0 1-.522.038Zm1.55-7.885c-.39 0-.697-.058-.92-.174-.224-.116-.382-.261-.473-.435a1.184 1.184 0 0 1-.149-.572c0-.141.02-.29.062-.448.041-.166.104-.32.186-.46l1.356.174c-.017.058-.029.12-.037.187a.575.575 0 0 0-.025.161c0 .116.037.207.112.274.066.058.182.087.348.087h2.674v1.206h-3.134Zm-.501-2.823v-.51c.082-.025.186-.062.31-.112.117-.05.22-.116.311-.199a.4.4 0 0 0 .137-.31.289.289 0 0 0-.074-.212.289.289 0 0 0-.212-.087.528.528 0 0 0-.186.037.343.343 0 0 0-.174.087l-.224-.72a1.17 1.17 0 0 1 .559-.225c.216-.041.402-.062.56-.062.315 0 .572.066.771.199.191.124.286.332.286.622 0 .124-.025.253-.075.385a.674.674 0 0 1-.335.324l-.087-.261h1.852v1.044h-3.419Zm5.247 10.583-1.977-6.815h1.877l1.505 5.31h.075a.679.679 0 0 0 .373-.112c.116-.074.215-.174.298-.298.166-.232.291-.506.373-.82.083-.324.125-.643.125-.958 0-.556-.108-.983-.324-1.281a.999.999 0 0 0-.87-.448c-.075 0-.145.004-.211.013a.529.529 0 0 0-.162.05l-.348-1.43a2.22 2.22 0 0 1 .534-.1c.175-.017.315-.025.423-.025.44 0 .821.058 1.144.174.324.116.601.29.834.522.29.282.505.634.646 1.057.149.423.224.9.224 1.43 0 .672-.108 1.26-.323 1.766-.208.498-.46.891-.759 1.182-.249.24-.564.43-.945.572-.373.14-.887.211-1.542.211h-.97Zm8.87.162c-1.077 0-1.861-.249-2.35-.746-.481-.506-.721-1.236-.721-2.19v-4.04h1.865v4.14c0 .44.095.775.286 1.008.199.224.506.335.92.335.415 0 .718-.112.908-.335.199-.233.299-.568.299-1.008v-4.14h1.865v4.04c0 .954-.245 1.684-.734 2.19-.481.497-1.26.746-2.338.746Zm7.012 0c-.49 0-.983-.054-1.48-.162a5.262 5.262 0 0 1-1.306-.46l.522-1.48c.166.091.365.187.597.286.232.1.485.183.759.249.273.066.551.1.833.1.332 0 .58-.046.746-.138a.484.484 0 0 0 .261-.447c0-.15-.058-.27-.174-.36-.108-.1-.269-.191-.485-.274a10.463 10.463 0 0 0-.771-.286 6.952 6.952 0 0 1-1.131-.51 2.128 2.128 0 0 1-.734-.672c-.166-.265-.249-.597-.249-.995 0-.456.116-.829.348-1.119.232-.29.56-.506.983-.647.423-.149.916-.223 1.48-.223.464 0 .883.037 1.256.112.373.074.663.17.87.285v1.468a3.807 3.807 0 0 0-.559-.199 5.665 5.665 0 0 0-.734-.162 3.922 3.922 0 0 0-.746-.074c-.34 0-.597.045-.771.136-.174.092-.262.22-.262.386 0 .133.059.245.175.336.124.09.302.178.534.26.232.076.51.17.834.287.431.15.795.315 1.094.497.298.183.522.407.671.672.158.265.237.593.237.982 0 .373-.087.726-.261 1.057-.166.324-.452.589-.859.796-.406.2-.965.299-1.678.299Zm-3.441-7.922v-.783l1.256-.523h4.439v1.306h-5.695Zm10.449 7.922c-.754 0-1.368-.112-1.84-.336a2.184 2.184 0 0 1-1.02-1.007c-.216-.44-.323-.979-.323-1.617v-4.017h1.853v4.117c0 .456.103.8.311 1.032.215.232.563.348 1.044.348.464 0 .796-.108.995-.323.199-.224.298-.577.298-1.058v-4.116h1.853v4.017c0 .638-.107 1.177-.323 1.617a2.18 2.18 0 0 1-1.02 1.007c-.464.224-1.073.336-1.828.336Zm.796-2.873c-.39 0-.7-.062-.933-.186a1.132 1.132 0 0 1-.472-.498 1.536 1.536 0 0 1-.137-.622c0-.149.021-.306.062-.472a.994.994 0 0 1 .187-.398l1.107.224a.87.87 0 0 0-.063.174 1.275 1.275 0 0 0-.012.174c0 .108.033.203.099.286a.35.35 0 0 0 .274.112h2.985v1.206h-3.097Zm.437-5.049c-.39 0-.696-.058-.92-.174-.224-.116-.382-.261-.473-.435a1.184 1.184 0 0 1-.149-.572c0-.141.021-.29.062-.448.042-.166.104-.32.187-.46l1.355.174c-.016.058-.029.12-.037.187a.575.575 0 0 0-.025.161c0 .116.037.207.112.274.066.058.182.087.348.087h2.674v1.206h-3.134Zm3.789 7.76v-6.815h1.368l.249 1.07h.099a1.84 1.84 0 0 1 .734-.846c.348-.232.8-.348 1.355-.348.531 0 .97.095 1.319.286.348.182.609.464.783.846.182.373.274.845.274 1.417v4.39h-1.866v-4.017c0-.464-.095-.796-.286-.995-.182-.207-.452-.31-.808-.31-.29 0-.539.078-.746.236-.199.157-.353.39-.46.696-.1.299-.15.676-.15 1.132v3.258h-1.865Z" fill="#4F5B76"/></g><rect x="182.527" y="111.398" width="596.925" height="39.319" rx="7.106" fill="#fff"/><path fill-rule="evenodd" clip-rule="evenodd" d="M212.73 131.057a7.105 7.105 0 0 1-7.106 7.106 7.106 7.106 0 1 1 7.106-7.106Zm-3.111-2.669a.888.888 0 0 0-1.256 0l-3.627 3.634-1.593-1.593a.888.888 0 1 0-1.256 1.256l2.22 2.221a.889.889 0 0 0 1.257 0l4.255-4.262a.888.888 0 0 0 0-1.256Z" fill="#15BE53"/><g filter="url(#c)"><path fill="#fff" d="M228.719 111.398h536.522v39.319H228.719z"/><path d="M232.3 136.219c-1.011 0-1.761-.245-2.251-.734-.489-.497-.733-1.231-.733-2.201 0-.166.004-.365.012-.597.017-.24.037-.452.062-.634h2.985v1.181h-1.231v.174c0 .332.041.605.124.821a.906.906 0 0 0 .373.46c.174.1.39.149.647.149.282 0 .518-.062.709-.186.199-.124.348-.336.447-.634.108-.299.162-.709.162-1.232 0-.489-.058-.895-.174-1.218-.108-.332-.294-.581-.56-.746-.257-.166-.613-.249-1.069-.249-.249 0-.506.029-.771.087-.265.05-.518.116-.759.199a3.87 3.87 0 0 0-.609.273v-1.554a3.23 3.23 0 0 1 .671-.261c.274-.075.568-.133.883-.174a7.05 7.05 0 0 1 .933-.062c.804 0 1.451.149 1.94.447.498.29.858.705 1.082 1.244.232.539.348 1.177.348 1.915 0 .754-.112 1.397-.336 1.928-.215.522-.559.92-1.032 1.193-.472.274-1.09.411-1.853.411Zm7.235 0c-1.011 0-1.762-.245-2.251-.734-.489-.497-.733-1.231-.733-2.201 0-.166.004-.365.012-.597.017-.24.037-.452.062-.634h2.985v1.181h-1.231v.174c0 .332.041.605.124.821a.906.906 0 0 0 .373.46c.174.1.39.149.647.149.282 0 .518-.062.709-.186.199-.124.348-.336.447-.634.108-.299.162-.709.162-1.232 0-.489-.058-.895-.174-1.218-.108-.332-.294-.581-.56-.746-.257-.166-.613-.249-1.069-.249-.249 0-.506.029-.771.087a5.37 5.37 0 0 0-.759.199 3.87 3.87 0 0 0-.609.273v-1.554a3.23 3.23 0 0 1 .671-.261c.274-.075.568-.133.883-.174a7.05 7.05 0 0 1 .933-.062c.804 0 1.451.149 1.94.447.497.29.858.705 1.082 1.244.232.539.348 1.177.348 1.915 0 .754-.112 1.397-.336 1.928-.215.522-.559.92-1.032 1.193-.472.274-1.09.411-1.853.411Zm4.462-.162v-2.077c0-.522.104-.924.311-1.206.207-.282.501-.481.883-.597l.012-.05-1.33-.485v-.323c0-.406.12-.779.36-1.119.241-.34.593-.61 1.057-.809.473-.207 1.045-.31 1.716-.31.63 0 1.174.099 1.629.298.456.191.809.481 1.058.871.257.381.385.866.385 1.455v4.352h-1.865v-4.241c0-.414-.112-.725-.336-.932-.216-.207-.522-.311-.92-.311-.382 0-.668.083-.858.249a.805.805 0 0 0-.311.584l1.106.51-.136.808c-.299.017-.523.125-.672.324-.149.199-.224.468-.224.808v2.201h-1.865Zm7.798 0v-6.815h1.84v2.55h.05l2.114-2.55h2.052v.062l-4.216 4.676v2.077h-1.84Zm4.166 0v-2.251c0-.439-.129-.754-.386-.945-.249-.199-.613-.298-1.094-.298l1.094-1.294c.497 0 .912.1 1.244.299a1.9 1.9 0 0 1 .746.808c.174.332.261.713.261 1.144v2.537h-1.865Zm.143 3.246v-1.107c0-.207-.091-.311-.273-.311a.649.649 0 0 0-.249.05l-.087-.895c.116-.042.278-.083.485-.125a3.01 3.01 0 0 1 .609-.062c.406 0 .693.079.858.236.166.166.249.39.249.672v1.542h-1.592Zm-2.665-10.993v-.622a3.67 3.67 0 0 0 .386-.137c.141-.058.265-.137.373-.236a.487.487 0 0 0 .162-.373.372.372 0 0 0-.1-.274.338.338 0 0 0-.249-.099.666.666 0 0 0-.211.037c-.075.025-.141.05-.199.074l-.236-.833a1.25 1.25 0 0 1 .621-.273c.241-.05.444-.075.61-.075.373 0 .667.087.883.261.207.174.311.431.311.771a1 1 0 0 1-.137.51c-.1.158-.249.286-.448.386l-.05-.324h2.351v1.207h-4.067Zm7.895 7.871c-.506 0-.933-.095-1.281-.286a1.95 1.95 0 0 1-.784-.882c-.174-.39-.261-.867-.261-1.431v-4.34h1.866v4.017c0 .456.091.788.273.995.183.207.448.311.796.311.44 0 .779-.166 1.02-.498.24-.34.36-.862.36-1.567v-3.258h1.866v6.815h-1.418l-.199-1.044h-.112c-.141.331-.385.609-.733.833-.34.224-.805.335-1.393.335Zm7.492 0c-.373 0-.688-.058-.945-.174a1.236 1.236 0 0 1-.584-.522c-.133-.24-.199-.539-.199-.895v-4.602c0-.215.012-.393.037-.534.033-.141.091-.274.174-.398a3.99 3.99 0 0 1 .361-.473c.165-.191.302-.356.41-.497a.777.777 0 0 0 .162-.485.533.533 0 0 0-.212-.448c-.132-.116-.344-.174-.634-.174a1.885 1.885 0 0 0-1.069.311v-1.381c.116-.066.323-.141.621-.223a3.891 3.891 0 0 1 1.107-.137c.655 0 1.173.137 1.555.41.381.274.572.684.572 1.231 0 .332-.067.622-.199.871a4.524 4.524 0 0 1-.398.659c-.133.182-.249.336-.348.46a1.44 1.44 0 0 0-.212.361c-.041.124-.062.29-.062.497v4.328c0 .157.033.273.099.348.075.075.183.112.324.112a.946.946 0 0 0 .211-.025c.083-.016.158-.037.224-.062l.174 1.194a2.008 2.008 0 0 1-.535.186c-.199.042-.41.062-.634.062Zm2.262-.124v-6.815h1.841v2.55h.049l2.115-2.55h2.051v.062l-4.215 4.676v2.077h-1.841Zm4.166 0v-2.251c0-.439-.128-.754-.385-.945-.249-.199-.614-.298-1.095-.298l1.095-1.294c.497 0 .912.1 1.243.299.332.199.581.468.746.808.175.332.262.713.262 1.144v2.537h-1.866Zm-2.384-7.747v-.622a3.66 3.66 0 0 0 .385-.137 1.24 1.24 0 0 0 .373-.236.487.487 0 0 0 .162-.373.371.371 0 0 0-.099-.274.34.34 0 0 0-.249-.099.667.667 0 0 0-.212.037 3.23 3.23 0 0 0-.199.074l-.236-.833c.166-.141.373-.232.622-.273.24-.05.443-.075.609-.075.373 0 .668.087.883.261.207.174.311.431.311.771a.99.99 0 0 1-.137.51 1.082 1.082 0 0 1-.447.386l-.05-.324h2.35v1.207h-4.066Zm7.484 7.871c-.373 0-.688-.058-.945-.174a1.243 1.243 0 0 1-.585-.522c-.132-.24-.199-.539-.199-.895v-5.348h1.866v5.124c0 .157.033.273.099.348.075.075.187.112.336.112a.946.946 0 0 0 .211-.025c.075-.016.145-.037.212-.062l.174 1.194a2.02 2.02 0 0 1-.535.186c-.199.042-.41.062-.634.062Zm3.743 0c-.373 0-.688-.058-.945-.174a1.243 1.243 0 0 1-.585-.522c-.132-.24-.199-.539-.199-.895v-5.348h1.866v5.124c0 .157.033.273.099.348.075.075.187.112.336.112a.961.961 0 0 0 .212-.025c.074-.016.145-.037.211-.062l.174 1.194a2.008 2.008 0 0 1-.535.186c-.199.042-.41.062-.634.062Zm2.122-.124v-2.077c0-.522.103-.924.311-1.206.207-.282.501-.481.882-.597l.013-.05-1.331-.485v-.323c0-.406.12-.779.361-1.119.24-.34.593-.61 1.057-.809.473-.207 1.045-.31 1.716-.31.63 0 1.173.099 1.629.298a2.24 2.24 0 0 1 1.057.871c.257.381.386.866.386 1.455v4.352h-1.866v-4.241c0-.414-.111-.725-.335-.932-.216-.207-.523-.311-.921-.311-.381 0-.667.083-.858.249a.811.811 0 0 0-.311.584l1.107.51-.137.808c-.298.017-.522.125-.671.324-.149.199-.224.468-.224.808v2.201h-1.865Zm3.957-7.76v-2.823h1.716v2.823h-1.716Zm3.654 7.76v-5.298c0-.422.07-.754.211-.994.149-.241.352-.407.61-.498.257-.099.551-.149.882-.149.233 0 .44.025.622.074.183.042.332.092.448.15l-.249 1.218a1.698 1.698 0 0 0-.36-.049c-.158 0-.27.041-.336.124-.058.083-.087.203-.087.361v1.156c0 .208-.009.456-.025.746-.017.282-.046.639-.087 1.07h.062c.166-.39.311-.701.435-.933.133-.24.249-.452.348-.634l.461-.833h.696l.46.833c.116.199.216.381.299.547.083.158.161.315.236.473.075.157.157.34.249.547h.062a27.454 27.454 0 0 1-.087-1.07c-.017-.29-.025-.538-.025-.746v-2.91h1.741v6.815h-1.778l-1.48-2.711h-.05l-1.48 2.711h-1.778Zm4.522 3.296c-.664 0-1.149-.1-1.455-.299-.307-.199-.46-.46-.46-.783v-.212c0-.141-.038-.228-.112-.261a.528.528 0 0 0-.299.013l-.087-.834c.116-.049.265-.083.448-.099.182-.017.331-.025.447-.025.365 0 .631.066.796.199.158.133.237.319.237.56v.286c0 .141.033.248.099.323.058.083.17.124.336.124.174 0 .294-.041.361-.124.066-.075.099-.182.099-.323v-1.008h1.517v1.207c0 .406-.153.717-.46.932-.307.216-.796.324-1.467.324Zm-1.978-11.043v-.622a3.67 3.67 0 0 0 .386-.137c.141-.058.265-.137.373-.236a.487.487 0 0 0 .162-.373.372.372 0 0 0-.1-.274.338.338 0 0 0-.249-.099.666.666 0 0 0-.211.037c-.075.025-.141.05-.199.074l-.236-.833c.166-.141.373-.232.622-.273.24-.05.443-.075.609-.075.373 0 .667.087.883.261.207.174.311.431.311.771a1 1 0 0 1-.137.51c-.1.158-.249.286-.448.386l-.05-.324h2.351v1.207h-4.067Zm5.398 7.747v-2.077c0-.522.103-.924.311-1.206.207-.282.501-.481.883-.597l.012-.05-1.331-.485v-.323a1.9 1.9 0 0 1 .361-1.119c.241-.34.593-.61 1.057-.809.473-.207 1.045-.31 1.716-.31.63 0 1.173.099 1.629.298a2.24 2.24 0 0 1 1.057.871c.257.381.386.866.386 1.455v4.352h-1.865v-4.241c0-.414-.112-.725-.336-.932-.216-.207-.522-.311-.92-.311-.382 0-.668.083-.859.249a.807.807 0 0 0-.31.584l1.106.51-.136.808c-.299.017-.523.125-.672.324-.149.199-.224.468-.224.808v2.201h-1.865Zm3.957-7.76v-2.823h1.716v2.823h-1.716Zm6.303 7.922c-1.012 0-1.762-.245-2.251-.734-.489-.497-.734-1.231-.734-2.201 0-.166.004-.365.013-.597.016-.24.037-.452.062-.634h2.984v1.181h-1.231v.174c0 .332.042.605.125.821a.901.901 0 0 0 .373.46c.174.1.389.149.646.149.282 0 .518-.062.709-.186.199-.124.348-.336.448-.634.108-.299.162-.709.162-1.232 0-.489-.059-.895-.175-1.218a1.32 1.32 0 0 0-.559-.746c-.257-.166-.614-.249-1.07-.249-.248 0-.505.029-.771.087-.265.05-.518.116-.758.199a3.884 3.884 0 0 0-.61.273v-1.554c.183-.099.407-.187.672-.261.273-.075.568-.133.883-.174a7.05 7.05 0 0 1 .933-.062c.804 0 1.45.149 1.94.447.497.29.858.705 1.081 1.244.233.539.349 1.177.349 1.915 0 .754-.112 1.397-.336 1.928-.216.522-.56.92-1.032 1.193-.473.274-1.091.411-1.853.411Zm7.123-.038c-.738 0-1.314-.149-1.729-.447-.406-.307-.692-.73-.858-1.269-.157-.547-.236-1.181-.236-1.902 0-.805.079-1.46.236-1.965.158-.506.394-.879.709-1.119.323-.241.717-.361 1.181-.361.29 0 .543.058.759.174.224.108.402.311.535.609h.049c.116-.306.307-.514.572-.621a2.26 2.26 0 0 1 .859-.162c.572 0 .999.153 1.28.46.291.307.436.754.436 1.343v5.136h-1.866v-4.788c0-.257-.041-.431-.124-.522a.433.433 0 0 0-.336-.137c-.157 0-.278.046-.36.137-.075.091-.125.245-.15.46h-.733c-.034-.24-.096-.398-.187-.472a.464.464 0 0 0-.323-.125c-.208 0-.369.149-.485.448-.108.298-.162.804-.162 1.517 0 .464.033.862.1 1.194.074.323.199.572.373.746.174.166.422.249.746.249.099 0 .19-.004.273-.013.083-.016.154-.037.212-.062l.186 1.331a1.76 1.76 0 0 1-.435.124 3.346 3.346 0 0 1-.522.037Zm1.55-7.884c-.39 0-.697-.058-.92-.174-.224-.116-.382-.261-.473-.435a1.185 1.185 0 0 1-.149-.572c0-.141.021-.29.062-.448a1.71 1.71 0 0 1 .187-.46l1.355.174c-.017.058-.029.12-.037.187a.57.57 0 0 0-.025.161c0 .116.037.207.112.274.066.058.182.087.348.087h2.674v1.206h-3.134Zm-.501-2.823v-.51c.083-.025.186-.062.311-.112.116-.049.219-.116.31-.199a.4.4 0 0 0 .137-.311.288.288 0 0 0-.074-.211.289.289 0 0 0-.212-.087.525.525 0 0 0-.186.037.349.349 0 0 0-.174.087l-.224-.721c.149-.116.335-.191.559-.224.216-.041.402-.062.56-.062.315 0 .572.066.771.199.191.124.286.332.286.622 0 .124-.025.253-.075.385a.674.674 0 0 1-.335.324l-.087-.261h1.853v1.044h-3.42Zm5.247 10.583-1.977-6.815h1.878l1.504 5.31h.075a.673.673 0 0 0 .373-.112c.116-.074.216-.174.298-.298.166-.232.291-.506.374-.821a3.88 3.88 0 0 0 .124-.957c0-.556-.108-.983-.323-1.281a1 1 0 0 0-.871-.448c-.075 0-.145.004-.211.012a.546.546 0 0 0-.162.05l-.348-1.43c.19-.058.369-.091.534-.099.175-.017.316-.025.423-.025.44 0 .821.058 1.144.174.324.116.601.29.834.522.29.282.505.634.646 1.057.15.423.224.9.224 1.43 0 .672-.108 1.261-.323 1.766-.207.498-.46.891-.759 1.182-.249.24-.564.431-.945.572-.373.141-.887.211-1.542.211h-.97Z" fill="#4F5B76"/></g><rect x="182.527" y="151.605" width="596.925" height="39.319" rx="7.106" fill="#fff"/><path fill-rule="evenodd" clip-rule="evenodd" d="M212.73 171.264a7.105 7.105 0 0 1-7.106 7.106 7.106 7.106 0 1 1 7.106-7.106Zm-3.111-2.669a.888.888 0 0 0-1.256 0l-3.627 3.634-1.593-1.593a.888.888 0 1 0-1.256 1.256l2.22 2.221a.889.889 0 0 0 1.257 0l4.255-4.262a.888.888 0 0 0 0-1.256Z" fill="#15BE53"/><g filter="url(#d)"><path fill="#fff" d="M228.719 151.605h536.522v39.319H228.719z"/><path d="M232.499 176.426c-.961 0-1.683-.216-2.164-.647-.48-.431-.721-1.04-.721-1.828v-.41c0-.39.066-.722.199-.995a3.8 3.8 0 0 1 .585-.846c.083-.091.17-.195.261-.311a.599.599 0 0 0 .161-.335l-.037-.013c-.083.042-.17.075-.261.1a.981.981 0 0 1-.274.037.97.97 0 0 1-.758-.336c-.191-.224-.286-.539-.286-.945v-.448h1.33c0 .232.029.398.087.498.058.099.15.149.274.149a.822.822 0 0 0 .224-.037.987.987 0 0 0 .236-.137l.199-.473h.92v.833c0 .266-.012.485-.037.66a1.408 1.408 0 0 1-.124.472 2.694 2.694 0 0 1-.274.485c-.099.149-.195.286-.286.411a1.712 1.712 0 0 0-.199.41c-.05.149-.074.344-.074.584v.498c0 .273.037.497.111.671a.835.835 0 0 0 .349.386c.157.075.344.112.559.112.365 0 .63-.096.796-.286.166-.199.249-.464.249-.796v-1.206c0-.249-.054-.444-.162-.585-.108-.149-.282-.224-.522-.224h-.037v-.982h.049c.249 0 .431-.071.548-.212a1.08 1.08 0 0 0 .223-.534c.034-.224.05-.456.05-.697h1.841c0 .506-.067.921-.199 1.244a1.164 1.164 0 0 1-.697.684v.05c.282.082.477.236.585.46.108.215.161.493.161.833v1.219c0 .812-.244 1.43-.733 1.853-.481.422-1.198.634-2.152.634Zm-2.774-7.922v-.783l1.256-.523h4.44v1.306h-5.696Zm2.612-.758v-1.406h1.181v1.406h-1.181Zm1.915 0v-1.406h1.169v1.406h-1.169Zm-1.926-2.065v-.51c.083-.025.187-.062.311-.112.116-.049.22-.116.311-.199a.402.402 0 0 0 .137-.31c0-.092-.025-.162-.075-.212a.287.287 0 0 0-.211-.087.535.535 0 0 0-.187.037.358.358 0 0 0-.174.087l-.223-.721c.149-.116.335-.191.559-.224.216-.041.402-.062.56-.062.315 0 .572.066.771.199.19.124.286.332.286.622 0 .124-.025.253-.075.385a.672.672 0 0 1-.336.324l-.087-.261h1.853v1.044h-3.42Zm7.057 10.745c-1.011 0-1.762-.245-2.251-.734-.489-.497-.734-1.231-.734-2.201 0-.166.005-.365.013-.597.016-.24.037-.452.062-.634h2.985v1.181h-1.231v.174c0 .332.041.606.124.821a.906.906 0 0 0 .373.46c.174.1.39.149.647.149.281 0 .518-.062.708-.186.199-.124.349-.336.448-.634.108-.299.162-.709.162-1.231 0-.49-.058-.896-.174-1.219a1.326 1.326 0 0 0-.56-.746c-.257-.166-.613-.249-1.069-.249-.249 0-.506.029-.771.087-.266.05-.519.116-.759.199a3.78 3.78 0 0 0-.609.274v-1.555a3.23 3.23 0 0 1 .671-.261c.274-.075.568-.133.883-.174a7.05 7.05 0 0 1 .933-.062c.804 0 1.451.149 1.94.447.497.29.858.705 1.082 1.244.232.539.348 1.177.348 1.915 0 .754-.112 1.397-.336 1.928-.215.522-.559.92-1.032 1.193-.473.274-1.09.411-1.853.411Zm4.636-.162v-6.815h1.84v2.55h.05l2.114-2.55h2.052v.062l-4.216 4.676v2.077h-1.84Zm4.166 0v-2.251c0-.439-.129-.754-.386-.945-.248-.199-.613-.298-1.094-.298l1.094-1.294c.498 0 .912.1 1.244.299.332.199.58.468.746.808.174.332.261.713.261 1.144v2.537h-1.865Zm.144 3.246v-1.107c0-.207-.092-.311-.274-.311a.658.658 0 0 0-.249.05l-.087-.895c.116-.042.278-.083.485-.125.199-.041.402-.062.61-.062.406 0 .692.079.858.236.165.166.248.39.248.672v1.542h-1.591Zm-2.665-10.993v-.622a3.66 3.66 0 0 0 .385-.137c.141-.058.265-.137.373-.236a.487.487 0 0 0 .162-.373.368.368 0 0 0-.1-.274.337.337 0 0 0-.248-.099.667.667 0 0 0-.212.037 3.23 3.23 0 0 0-.199.074l-.236-.833c.166-.141.373-.232.622-.273.24-.05.443-.075.609-.075.373 0 .668.087.883.261.207.174.311.431.311.771a1 1 0 0 1-.137.51 1.085 1.085 0 0 1-.448.386l-.049-.324h2.35v1.207h-4.066Zm7.894 7.872c-.506 0-.933-.096-1.281-.287a1.938 1.938 0 0 1-.783-.882c-.174-.39-.261-.867-.261-1.431v-4.34h1.865v4.017c0 .456.091.788.274.995.182.207.447.311.795.311.44 0 .78-.166 1.02-.498.241-.34.361-.862.361-1.567v-3.258h1.865v6.815h-1.417l-.199-1.044h-.112c-.141.331-.386.609-.734.833-.34.224-.804.336-1.393.336Z" fill="#4F5B76"/></g><rect x="182.527" y="191.812" width="596.925" height="39.319" rx="7.106" fill="#fff"/><path fill-rule="evenodd" clip-rule="evenodd" d="M199.381 217.023c0-.368.299-.666.668-.666h11.125a.667.667 0 1 1 0 1.332h-11.125a.667.667 0 0 1-.668-.666ZM205.611 209.917c0-.368.299-.667.668-.667h4.895a.668.668 0 1 1 0 1.333h-4.895a.667.667 0 0 1-.668-.666ZM199.381 213.47c0-.368.299-.666.668-.666h11.125a.667.667 0 1 1 0 1.332h-11.125a.667.667 0 0 1-.668-.666Z" fill="#0A2540"/><path d="M206.504 206.388a.668.668 0 0 0-.949-.937l-4.181 4.22-1.685-1.933a.67.67 0 0 0-.942-.065.665.665 0 0 0-.065.94l2.145 2.46a.656.656 0 0 0 .216.165.67.67 0 0 0 .78-.125l4.681-4.725Z" fill="#0A2540"/><g filter="url(#e)"><path fill="#fff" d="M228.719 191.812h536.522v39.319H228.719z"/><path fill="#fff" d="M228.719 202.471h383.738v18H228.719z"/><path d="M232.474 216.633c-.746 0-1.343-.087-1.79-.261-.448-.183-.776-.436-.983-.759a2.09 2.09 0 0 1-.298-1.119c0-.365.054-.659.161-.883.116-.224.262-.394.436-.51.182-.124.364-.207.547-.249v-.074a2.436 2.436 0 0 1-.547-.274 1.409 1.409 0 0 1-.436-.472c-.107-.199-.161-.448-.161-.747 0-.306.07-.592.211-.858.149-.265.386-.476.709-.634.323-.166.75-.249 1.281-.249.257 0 .506.021.746.063.24.033.427.082.56.149l-.286 1.256a2.892 2.892 0 0 0-.274-.05 1.485 1.485 0 0 0-.336-.037c-.257 0-.447.062-.572.186a.601.601 0 0 0-.186.46c0 .199.054.353.161.461a.866.866 0 0 0 .411.223c.174.042.352.063.534.063h.262v1.156h-.262c-.356 0-.625.062-.808.187-.174.124-.261.327-.261.609 0 .149.033.298.099.448a.917.917 0 0 0 .374.36c.174.092.422.137.746.137.306 0 .547-.045.721-.137a.83.83 0 0 0 .373-.36c.075-.158.112-.332.112-.523v-4.539h1.865v4.477c0 .854-.252 1.484-.758 1.89-.498.407-1.281.61-2.351.61Zm-2.725-7.922v-.783l1.257-.523h4.439v1.306h-5.696Zm2.612-.758v-1.406h1.181v1.406h-1.181Zm1.915 0v-1.406h1.169v1.406h-1.169Zm-1.192-2.065v-2.313h1.617v2.313h-1.617Zm6.156 10.708c-.505 0-.932-.096-1.28-.286a1.947 1.947 0 0 1-.784-.883c-.174-.39-.261-.867-.261-1.431v-4.34h1.865v4.017c0 .456.091.788.274.995.182.207.448.311.796.311.439 0 .779-.166 1.02-.498.24-.339.36-.862.36-1.566v-3.259h1.866v6.815h-1.418l-.199-1.044h-.112c-.141.331-.386.609-.734.833-.34.224-.804.336-1.393.336Zm7.493 0c-.373 0-.688-.058-.945-.175a1.243 1.243 0 0 1-.585-.522c-.132-.24-.199-.539-.199-.895v-5.348h1.866v5.124c0 .157.033.273.099.348.075.075.187.112.336.112a.946.946 0 0 0 .211-.025c.075-.016.145-.037.212-.062l.174 1.194a2.02 2.02 0 0 1-.535.186c-.199.042-.41.063-.634.063Zm4.849.037c-1.012 0-1.762-.245-2.251-.734-.489-.497-.734-1.231-.734-2.201 0-.166.004-.365.013-.597.016-.24.037-.452.062-.634h2.984v1.181h-1.231v.174c0 .332.042.606.125.821a.906.906 0 0 0 .373.46c.174.1.389.149.646.149.282 0 .519-.062.709-.186.199-.124.348-.336.448-.634.108-.299.162-.709.162-1.231 0-.49-.058-.896-.174-1.219a1.326 1.326 0 0 0-.56-.746c-.257-.166-.614-.249-1.07-.249-.248 0-.505.029-.771.087-.265.05-.518.116-.758.199a3.833 3.833 0 0 0-.61.274v-1.555c.183-.099.407-.186.672-.261.274-.075.568-.133.883-.174a7.05 7.05 0 0 1 .933-.062c.804 0 1.45.149 1.94.447.497.29.858.705 1.082 1.244.232.539.348 1.177.348 1.915 0 .754-.112 1.397-.336 1.928-.216.522-.56.92-1.032 1.193-.473.274-1.09.411-1.853.411Zm4.462-.162v-2.077c0-.522.103-.924.31-1.206.208-.282.502-.481.883-.597l.013-.05-1.331-.485v-.323c0-.406.12-.779.361-1.119.24-.34.593-.609 1.057-.808.472-.208 1.044-.311 1.716-.311.63 0 1.173.099 1.629.298.456.191.808.481 1.057.871.257.381.386.866.386 1.455v4.352h-1.866v-4.24c0-.415-.112-.726-.335-.933-.216-.207-.523-.311-.921-.311-.381 0-.667.083-.858.249a.811.811 0 0 0-.311.584l1.107.51-.137.808c-.298.017-.522.125-.671.324-.149.199-.224.468-.224.808v2.201h-1.865Zm11.565 0v-4.427c0-.398-.108-.684-.323-.858-.216-.174-.547-.261-.995-.261-.431 0-.854.066-1.268.199a4.963 4.963 0 0 0-1.057.447v-1.542c.24-.116.58-.232 1.019-.348.44-.124.945-.186 1.517-.186.44 0 .834.054 1.182.161.356.108.613.319.771.635.348.107.597.319.746.634.158.307.236.704.236 1.194v4.352h-1.828Zm-2.039.125c-.713 0-1.265-.17-1.654-.51-.382-.34-.572-.817-.572-1.43 0-.664.236-1.194.709-1.592.48-.398 1.235-.639 2.263-.722l1.592-.124v1.343l-1.381.137c-.497.05-.845.149-1.044.298a.72.72 0 0 0-.286.597c0 .249.078.436.236.56.166.124.377.187.634.187.1 0 .199-.009.299-.025.099-.025.19-.05.273-.075l.162 1.169a2.905 2.905 0 0 1-.56.137c-.215.033-.439.05-.671.05Zm2.848-5.584-1.02-.858c.29-.1.518-.224.684-.373a.804.804 0 0 0 .261-.572h1.629c0 .257-.054.505-.162.746a1.594 1.594 0 0 1-.497.622c-.224.182-.522.327-.895.435Zm4.459 5.459v-4.502c0-.348-.083-.601-.249-.758-.158-.158-.419-.236-.784-.236-.273 0-.526.037-.758.111a3.962 3.962 0 0 0-.634.274v-1.492a4.85 4.85 0 0 1 1.94-.373c.456 0 .858.066 1.206.199.356.132.634.356.833.671.207.307.311.73.311 1.269v4.837h-1.865Zm5.802.162c-.489 0-.983-.054-1.48-.162a5.28 5.28 0 0 1-1.306-.46l.523-1.48c.165.091.364.187.596.286.233.1.485.183.759.249s.551.099.833.099c.332 0 .581-.045.746-.136a.484.484 0 0 0 .262-.448.435.435 0 0 0-.175-.361 1.524 1.524 0 0 0-.485-.273 9.901 9.901 0 0 0-.771-.286 7.03 7.03 0 0 1-1.131-.51 2.137 2.137 0 0 1-.734-.672c-.166-.265-.249-.597-.249-.995 0-.456.116-.829.349-1.119.232-.29.559-.506.982-.647.423-.149.916-.223 1.48-.223.464 0 .883.037 1.256.112.373.074.663.17.87.286v1.467a3.806 3.806 0 0 0-.559-.199 5.835 5.835 0 0 0-.734-.162 3.986 3.986 0 0 0-.746-.074c-.34 0-.597.045-.771.137-.174.091-.261.219-.261.385 0 .133.058.245.174.336.124.091.302.178.535.261.232.075.509.17.833.286a5.65 5.65 0 0 1 1.094.497c.299.183.522.407.672.672.157.265.236.593.236.982 0 .374-.087.726-.261 1.057-.166.324-.452.589-.858.796-.407.199-.966.299-1.679.299Zm9.741-9.153c.515 0 .983.079 1.406.236.431.158.775.394 1.032.709.265.315.398.713.398 1.194 0 .356-.071.672-.212.945-.14.265-.331.498-.572.697a3.743 3.743 0 0 1-.808.522c.315.166.614.36.895.584.291.216.523.473.697.771.182.291.273.635.273 1.033 0 .489-.132.916-.397 1.28-.257.365-.622.647-1.095.846-.464.199-1.003.299-1.617.299-.663 0-1.227-.096-1.691-.286-.464-.191-.821-.465-1.069-.821-.241-.357-.361-.78-.361-1.269 0-.406.075-.758.224-1.057.157-.298.365-.555.622-.771.257-.224.543-.41.858-.559a4.375 4.375 0 0 1-.721-.56 2.774 2.774 0 0 1-.523-.721 2.27 2.27 0 0 1-.186-.945c0-.473.132-.867.398-1.182a2.419 2.419 0 0 1 1.044-.709c.44-.157.908-.236 1.405-.236Zm-1.38 6.628c0 .324.112.589.336.796.232.208.572.311 1.02.311.315 0 .572-.045.771-.137a.973.973 0 0 0 .46-.385c.108-.166.161-.357.161-.572a.907.907 0 0 0-.199-.585 2.035 2.035 0 0 0-.497-.46 5.673 5.673 0 0 0-.597-.385l-.162-.087a3.572 3.572 0 0 0-.684.398c-.19.149-.339.315-.447.497a1.13 1.13 0 0 0-.162.609Zm1.368-5.26c-.307 0-.564.079-.771.236-.199.158-.298.382-.298.672 0 .199.049.377.149.535.099.149.232.281.398.397.166.108.344.212.534.311.191-.091.365-.19.523-.298a1.36 1.36 0 0 0 .398-.386c.099-.157.149-.344.149-.559 0-.29-.104-.514-.311-.672-.199-.157-.456-.236-.771-.236Zm9.79.734c0 .406-.087.758-.261 1.057a2.07 2.07 0 0 1-.684.733 3.011 3.011 0 0 1-.97.423v.038c.713.082 1.252.298 1.617.646.373.348.56.817.56 1.406 0 .514-.129.978-.386 1.392-.249.407-.638.73-1.169.97-.522.232-1.198.349-2.027.349-.489 0-.945-.042-1.368-.125a6.093 6.093 0 0 1-1.194-.36v-1.592c.382.19.78.336 1.194.435.423.099.813.149 1.169.149.672 0 1.14-.116 1.405-.348.274-.232.411-.56.411-.982 0-.249-.062-.456-.187-.622-.124-.174-.344-.303-.659-.386-.307-.091-.738-.137-1.293-.137h-.672v-1.442h.684c.547 0 .962-.05 1.244-.149.29-.108.485-.249.584-.423a1.2 1.2 0 0 0 .162-.622c0-.315-.1-.56-.299-.734-.19-.182-.514-.273-.97-.273-.281 0-.538.037-.771.112a3.389 3.389 0 0 0-.634.248c-.182.1-.344.195-.485.286l-.87-1.293c.232-.166.489-.315.771-.448.29-.132.609-.236.957-.311a5.64 5.64 0 0 1 1.169-.111c.912 0 1.633.186 2.164.559.539.365.808.883.808 1.555Zm1.123 3.482c0-.68.062-1.343.187-1.99a8.317 8.317 0 0 1 .609-1.853 7.395 7.395 0 0 1 1.032-1.629h1.517a8.647 8.647 0 0 0-.945 1.666 9.59 9.59 0 0 0-.783 3.793 9.544 9.544 0 0 0 .771 3.731c.257.589.572 1.14.945 1.654h-1.505a7.257 7.257 0 0 1-1.032-1.604 7.871 7.871 0 0 1-.609-1.816 10.13 10.13 0 0 1-.187-1.952Zm7.248 3.569c-.928 0-1.629-.207-2.101-.622-.473-.414-.709-1.02-.709-1.816v-.497c0-.34.046-.618.137-.833.091-.224.203-.427.336-.61.132-.182.24-.344.323-.485a.872.872 0 0 0 .137-.46c0-.149-.038-.253-.112-.311a.373.373 0 0 0-.274-.099.984.984 0 0 0-.261.037 2.21 2.21 0 0 0-.286.112l-.299-1.169c.233-.124.481-.207.747-.249.273-.049.514-.074.721-.074.365 0 .655.058.87.174.224.116.386.282.485.497.1.216.15.473.15.771 0 .257-.038.485-.112.684-.075.191-.17.39-.286.597-.108.191-.208.369-.299.535-.083.166-.124.406-.124.721v.498c0 .265.037.485.112.659a.87.87 0 0 0 .336.373c.149.075.323.112.522.112.323 0 .564-.091.721-.274.158-.19.236-.46.236-.808v-4.44h1.853v4.49c0 .82-.24 1.442-.721 1.865-.481.415-1.181.622-2.102.622Zm7.273-3.569c0 .663-.066 1.314-.199 1.952a7.484 7.484 0 0 1-.597 1.816 6.693 6.693 0 0 1-1.032 1.604h-1.505a8.326 8.326 0 0 0 .933-1.654c.257-.58.452-1.185.584-1.816a9.49 9.49 0 0 0 0-3.855 9.59 9.59 0 0 0-.584-1.853 7.88 7.88 0 0 0-.945-1.666h1.517c.423.497.767 1.04 1.032 1.629.274.589.473 1.206.597 1.853.133.647.199 1.31.199 1.99Zm4.261 3.407v-2.077c0-.522.104-.924.311-1.206.207-.282.501-.481.883-.597l.012-.05-1.33-.485v-.323c0-.406.12-.779.36-1.119.241-.34.593-.609 1.057-.808.473-.208 1.045-.311 1.716-.311.631 0 1.174.099 1.63.298.456.191.808.481 1.057.871.257.381.385.866.385 1.455v4.352h-1.865v-4.24c0-.415-.112-.726-.336-.933-.216-.207-.522-.311-.92-.311-.382 0-.668.083-.858.249a.805.805 0 0 0-.311.584l1.107.51-.137.808c-.299.017-.523.125-.672.324-.149.199-.224.468-.224.808v2.201h-1.865Zm9.489 0v-4.502c0-.348-.083-.601-.249-.758-.157-.158-.419-.236-.783-.236-.274 0-.527.037-.759.111a3.962 3.962 0 0 0-.634.274v-1.492a4.85 4.85 0 0 1 1.94-.373c.456 0 .858.066 1.206.199.357.132.634.356.833.671.208.307.311.73.311 1.269v4.837h-1.865Zm5.802.162c-.489 0-.982-.054-1.48-.162a5.28 5.28 0 0 1-1.306-.46l.523-1.48c.166.091.365.187.597.286.232.1.485.183.758.249.274.066.552.099.833.099.332 0 .581-.045.747-.136a.485.485 0 0 0 .261-.448.437.437 0 0 0-.174-.361 1.547 1.547 0 0 0-.485-.273 10.217 10.217 0 0 0-.771-.286 7.003 7.003 0 0 1-1.132-.51 2.137 2.137 0 0 1-.734-.672c-.166-.265-.248-.597-.248-.995 0-.456.116-.829.348-1.119.232-.29.559-.506.982-.647.423-.149.916-.223 1.48-.223.464 0 .883.037 1.256.112.373.074.663.17.871.286v1.467a3.824 3.824 0 0 0-.56-.199 5.796 5.796 0 0 0-.734-.162 3.978 3.978 0 0 0-.746-.074c-.34 0-.597.045-.771.137-.174.091-.261.219-.261.385 0 .133.058.245.174.336.124.091.303.178.535.261.232.075.51.17.833.286a5.65 5.65 0 0 1 1.094.497c.299.183.523.407.672.672.157.265.236.593.236.982 0 .374-.087.726-.261 1.057-.166.324-.452.589-.858.796-.406.199-.966.299-1.679.299Zm5.877-.037c-.373 0-.688-.058-.945-.175a1.243 1.243 0 0 1-.585-.522c-.132-.24-.199-.539-.199-.895v-5.348h1.866v5.124c0 .157.033.273.099.348.075.075.187.112.336.112a.946.946 0 0 0 .211-.025c.075-.016.146-.037.212-.062l.174 1.194a2.02 2.02 0 0 1-.535.186c-.199.042-.41.063-.634.063Zm6.018-.125v-4.427c0-.398-.108-.684-.323-.858-.216-.174-.548-.261-.995-.261-.431 0-.854.066-1.269.199a5.008 5.008 0 0 0-1.057.447v-1.542a5.965 5.965 0 0 1 1.02-.348 5.652 5.652 0 0 1 1.53-.186c.422 0 .808.045 1.156.136.357.083.668.228.933.436.265.199.468.468.609.808.149.332.224.746.224 1.244v4.352h-1.828Zm-2.04.125c-.713 0-1.264-.17-1.654-.51-.381-.34-.572-.817-.572-1.43 0-.664.237-1.194.709-1.592.481-.398 1.236-.639 2.264-.722l1.591-.124v1.343l-1.38.137c-.497.05-.846.149-1.045.298a.724.724 0 0 0-.286.597c0 .249.079.436.237.56.165.124.377.187.634.187.099 0 .199-.009.298-.025.1-.025.191-.05.274-.075l.162 1.169a2.905 2.905 0 0 1-.56.137c-.216.033-.439.05-.672.05Zm-2.068-7.885v-.783l1.256-.523h4.439v1.306h-5.695Zm2.611-.758v-1.406h1.181v1.406h-1.181Zm1.915 0v-1.406h1.169v1.406h-1.169Zm5.584 8.68c-1.012 0-1.762-.245-2.251-.734-.489-.497-.734-1.231-.734-2.201 0-.166.004-.365.013-.597.016-.24.037-.452.062-.634h2.985v1.181h-1.232v.174c0 .332.042.606.125.821a.906.906 0 0 0 .373.46c.174.1.39.149.647.149.281 0 .518-.062.708-.186.199-.124.349-.336.448-.634.108-.299.162-.709.162-1.231 0-.49-.058-.896-.174-1.219a1.326 1.326 0 0 0-.56-.746c-.257-.166-.614-.249-1.069-.249-.249 0-.506.029-.772.087-.265.05-.518.116-.758.199a3.78 3.78 0 0 0-.609.274v-1.555c.182-.099.406-.186.671-.261.274-.075.568-.133.883-.174a7.05 7.05 0 0 1 .933-.062c.804 0 1.451.149 1.94.447.497.29.858.705 1.082 1.244.232.539.348 1.177.348 1.915 0 .754-.112 1.397-.336 1.928-.215.522-.56.92-1.032 1.193-.473.274-1.09.411-1.853.411Zm4.462-.162v-2.077c0-.522.103-.924.311-1.206.207-.282.501-.481.882-.597l.013-.05-1.331-.485v-.323c0-.406.12-.779.361-1.119.24-.34.593-.609 1.057-.808.473-.208 1.045-.311 1.716-.311.63 0 1.173.099 1.629.298a2.24 2.24 0 0 1 1.057.871c.257.381.386.866.386 1.455v4.352h-1.866v-4.24c0-.415-.112-.726-.335-.933-.216-.207-.523-.311-.921-.311-.381 0-.667.083-.858.249a.811.811 0 0 0-.311.584l1.107.51-.137.808c-.298.017-.522.125-.671.324-.149.199-.224.468-.224.808v2.201h-1.865Zm11.565 0v-4.427c0-.398-.107-.684-.323-.858-.216-.174-.547-.261-.995-.261-.431 0-.854.066-1.268.199a4.963 4.963 0 0 0-1.057.447v-1.542c.24-.116.58-.232 1.019-.348.44-.124.945-.186 1.518-.186.439 0 .833.054 1.181.161.356.108.613.319.771.635.348.107.597.319.746.634.158.307.236.704.236 1.194v4.352h-1.828Zm-2.039.125c-.713 0-1.264-.17-1.654-.51-.382-.34-.572-.817-.572-1.43 0-.664.236-1.194.709-1.592.481-.398 1.235-.639 2.263-.722l1.592-.124v1.343l-1.381.137c-.497.05-.845.149-1.044.298a.72.72 0 0 0-.286.597c0 .249.079.436.236.56.166.124.377.187.634.187.1 0 .199-.009.299-.025.099-.025.19-.05.273-.075l.162 1.169a2.905 2.905 0 0 1-.56.137c-.215.033-.439.05-.671.05Zm2.848-5.584-1.02-.858c.29-.1.518-.224.684-.373a.804.804 0 0 0 .261-.572h1.629c0 .257-.054.505-.162.746a1.594 1.594 0 0 1-.497.622c-.224.182-.522.327-.895.435Zm4.347 5.584c-.357 0-.668-.058-.933-.175a1.384 1.384 0 0 1-.609-.522c-.141-.24-.212-.539-.212-.895v-.759c0-.489.108-.858.324-1.107.215-.248.514-.431.895-.547l.013-.05-1.356-.485v-.323c0-.406.12-.779.361-1.119.24-.34.592-.609 1.057-.808.472-.208 1.044-.311 1.716-.311.63 0 1.173.099 1.629.298.464.191.821.481 1.069.871.257.381.386.866.386 1.455v4.352h-1.865v-4.24c0-.415-.112-.726-.336-.933-.216-.207-.527-.311-.933-.311-.381 0-.667.083-.858.249a.808.808 0 0 0-.311.584l1.082.498-.124.795c-.307.009-.539.075-.697.199-.157.117-.236.345-.236.684v.809c0 .182.037.315.112.398.083.074.211.112.385.112.075 0 .15-.004.224-.013.083-.016.154-.037.212-.062l.174 1.107a2.02 2.02 0 0 1-.535.186c-.199.042-.41.063-.634.063Zm7.747-.125v-4.502c0-.348-.082-.601-.248-.758-.158-.158-.419-.236-.784-.236-.273 0-.526.037-.758.111a3.973 3.973 0 0 0-.635.274v-1.492a4.862 4.862 0 0 1 1.94-.373c.456 0 .858.066 1.207.199.356.132.634.356.833.671.207.307.311.73.311 1.269v4.837h-1.866Zm5.79.125c-.506 0-.932-.096-1.281-.286a1.945 1.945 0 0 1-.783-.883c-.174-.39-.261-.867-.261-1.431v-4.34h1.865v4.017c0 .456.091.788.274.995.182.207.447.311.796.311.439 0 .779-.166 1.019-.498.241-.339.361-.862.361-1.566v-3.259h1.865v6.815h-1.417l-.199-1.044h-.112c-.141.331-.386.609-.734.833-.34.224-.804.336-1.393.336Zm6.747-4.142c-.382 0-.684-.058-.908-.174a1.085 1.085 0 0 1-.485-.46c-.1-.199-.15-.406-.15-.622a1.964 1.964 0 0 1 .249-.895l1.356.174c-.017.058-.033.12-.05.187a1.752 1.752 0 0 0-.012.211c0 .108.033.195.099.261.066.058.182.087.348.087h1.405v1.231h-1.852Zm0 3.482c-.382 0-.684-.058-.908-.174a1.085 1.085 0 0 1-.485-.46c-.1-.199-.15-.406-.15-.622a1.964 1.964 0 0 1 .249-.895l1.356.174c-.017.058-.033.12-.05.187a1.752 1.752 0 0 0-.012.211c0 .108.033.195.099.261.066.058.182.087.348.087h1.405v1.231h-1.852Zm3.698.66c-.232 0-.444-.025-.634-.075a1.865 1.865 0 0 1-.51-.187l.174-1.032c.058.017.112.029.162.038.058.008.112.012.161.012.141 0 .241-.033.299-.1.066-.074.099-.186.099-.335v-.908c0-.406.083-.721.249-.945.166-.232.419-.39.759-.473l.012-.05-1.356-.485v-.323c0-.406.117-.779.349-1.119.232-.34.58-.609 1.044-.808.465-.208 1.037-.311 1.716-.311.639 0 1.19.099 1.654.298.465.191.821.481 1.07.871.257.381.385.866.385 1.455v4.352h-1.865v-4.24c0-.415-.112-.726-.336-.933-.215-.207-.526-.311-.932-.311-.382 0-.668.083-.859.249a.807.807 0 0 0-.31.584l1.082.485-.137.808c-.232 0-.411.079-.535.237-.116.149-.174.394-.174.733v1.045c0 .531-.149.908-.448 1.132-.29.224-.663.336-1.119.336Zm9.037-.125v-4.502c0-.348-.083-.601-.248-.758-.158-.158-.419-.236-.784-.236-.273 0-.526.037-.758.111a3.973 3.973 0 0 0-.635.274v-1.492a4.862 4.862 0 0 1 1.94-.373c.456 0 .858.066 1.207.199.356.132.634.356.833.671.207.307.311.73.311 1.269v4.837h-1.866Zm6.648.162c-.754 0-1.368-.112-1.84-.336a2.185 2.185 0 0 1-1.02-1.007c-.216-.44-.323-.979-.323-1.617v-4.017h1.853v4.117c0 .456.103.8.311 1.032.215.232.563.348 1.044.348.464 0 .796-.108.995-.323.199-.224.298-.577.298-1.057v-4.117h1.853v4.017c0 .638-.107 1.177-.323 1.617a2.18 2.18 0 0 1-1.02 1.007c-.464.224-1.073.336-1.828.336Zm.796-2.873c-.39 0-.7-.062-.933-.186a1.135 1.135 0 0 1-.472-.498 1.534 1.534 0 0 1-.137-.622c0-.149.021-.306.062-.472a.99.99 0 0 1 .187-.398l1.107.224a.836.836 0 0 0-.063.174 1.272 1.272 0 0 0-.012.174c0 .108.033.203.099.286a.348.348 0 0 0 .274.112h2.985v1.206h-3.097Zm-3.467-5.049v-.783l1.256-.523h4.439v1.306h-5.695Zm4.104-.758v-1.406h1.591v1.406h-1.591Z" fill="#0A2540"/></g><rect x="182.527" y="232.019" width="596.925" height="39.319" rx="7.106" fill="#fff"/><path fill-rule="evenodd" clip-rule="evenodd" d="M211.594 251.678h-1.1v3.624l1.291 1.005c.861.643.427 2.033-.669 2.033H200.09c-1.097 0-1.531-1.39-.67-2.033l1.291-1.005v-3.624h-1.066c-1.084 0-1.551-1.398-.655-2.039l6.235-4.497a.665.665 0 0 1 .395-.126.664.664 0 0 1 .394.126l6.235 4.497c.896.641.429 2.039-.655 2.039Zm-11.306-1.332 5.332-3.846 5.331 3.846H200.288Zm6.226 1.332h-1.776v3.331a.666.666 0 0 1-1.333 0v-3.331h-1.361v3.95c0 .206-.095.4-.257.526l-1.097.854h9.826l-1.098-.854a.666.666 0 0 1-.257-.526v-3.95h-1.314v3.331a.667.667 0 0 1-1.333 0v-3.331Z" fill="#0A2540"/><g filter="url(#f)"><path fill="#fff" d="M228.719 232.019h536.522v39.319H228.719z"/><path fill="#fff" d="M228.719 242.678h383.738v18H228.719z"/><path d="M231.504 256.803c-.373 0-.688-.058-.945-.175a1.236 1.236 0 0 1-.584-.522c-.133-.24-.199-.539-.199-.895v-5.348h1.865v5.124c0 .157.033.274.1.348.074.075.186.112.335.112a.954.954 0 0 0 .212-.025c.074-.016.145-.037.211-.062l.174 1.194a2 2 0 0 1-.534.186 3.073 3.073 0 0 1-.635.063Zm5.174.037c-1.078 0-1.862-.249-2.351-.746-.481-.506-.721-1.236-.721-2.189v-4.042h1.865v4.141c0 .44.096.776.286 1.008.199.224.506.336.921.336.414 0 .717-.112.907-.336.199-.232.299-.568.299-1.008v-6.591h1.865v6.492c0 .953-.244 1.683-.733 2.189-.481.497-1.261.746-2.338.746Zm-4.12-7.922v-.783l1.02-.523h3.606v1.306h-4.626Zm11.118 7.885c-.671 0-1.206-.146-1.604-.436-.398-.298-.684-.704-.858-1.218-.174-.523-.261-1.12-.261-1.791 0-.721.078-1.318.236-1.791.166-.481.398-.854.696-1.119a2.482 2.482 0 0 1 1.057-.572 5.023 5.023 0 0 1 1.356-.174c.746 0 1.343.103 1.791.311.447.207.771.501.97.883.207.381.311.829.311 1.343v4.439h-1.866v-4.29c0-.39-.095-.684-.286-.883-.182-.207-.489-.311-.92-.311-.29 0-.547.062-.771.187-.216.116-.386.327-.51.634-.116.306-.174.746-.174 1.318 0 .39.037.734.112 1.032.074.299.195.531.36.697.175.165.407.248.697.248.091 0 .178-.004.261-.012.091-.017.17-.033.236-.05l.174 1.393a1.792 1.792 0 0 1-.485.124 3.843 3.843 0 0 1-.522.038Zm8.367.037c-1.078 0-1.861-.249-2.351-.746-.48-.506-.721-1.236-.721-2.189v-4.042h1.866v4.141c0 .44.095.776.286 1.008.199.224.505.336.92.336.414 0 .717-.112.908-.336.199-.232.298-.568.298-1.008v-4.141h1.866v4.042c0 .953-.245 1.683-.734 2.189-.481.497-1.26.746-2.338.746Zm1.126-7.922c-.39 0-.696-.058-.92-.174-.224-.116-.382-.261-.473-.435a1.185 1.185 0 0 1-.149-.572c0-.141.021-.29.062-.448.042-.166.104-.319.187-.46l1.355.174c-.016.058-.029.12-.037.187a.575.575 0 0 0-.025.161c0 .116.037.208.112.274.066.058.182.087.348.087h2.674v1.206h-3.134Zm9.964 10.198c-.373 0-.746-.038-1.119-.112a4.435 4.435 0 0 1-1.032-.311v-1.58c.215.133.489.249.82.349.34.107.697.161 1.07.161.356 0 .659-.054.908-.161a1.19 1.19 0 0 0 .584-.498c.141-.224.212-.51.212-.858v-.36h-.087a1.947 1.947 0 0 1-.684.596c-.291.166-.668.249-1.132.249-.415 0-.779-.074-1.094-.224a1.622 1.622 0 0 1-.722-.696c-.174-.323-.261-.738-.261-1.244v-2.089c0-.29-.054-.518-.162-.684a.85.85 0 0 0-.41-.373 1.496 1.496 0 0 0-.597-.112c-.315 0-.576.071-.783.212-.208.132-.319.335-.336.609l1.082.522-.125.809c-.306.008-.538.082-.696.223-.157.133-.236.369-.236.709v.759c0 .182.037.315.112.398.083.074.211.112.385.112.075 0 .149-.004.224-.013.083-.016.153-.037.211-.062l.175 1.107a2.02 2.02 0 0 1-.535.186 3.07 3.07 0 0 1-.634.063c-.357 0-.668-.058-.933-.175a1.384 1.384 0 0 1-.609-.522c-.141-.24-.212-.539-.212-.895v-.809c0-.489.108-.849.323-1.081.216-.233.515-.407.896-.523l.012-.05-1.355-.485v-.323c0-.423.116-.8.348-1.132.24-.339.589-.609 1.045-.808.456-.199 1.011-.298 1.666-.298.614 0 1.14.095 1.579.286.448.182.792.46 1.033.833.24.365.36.825.36 1.38v1.667c0 .398.087.684.261.858a.88.88 0 0 0 .647.261c.24 0 .448-.066.622-.199.174-.141.311-.332.41-.572.1-.249.149-.539.149-.871v-3.482h1.866v5.982c0 .738-.125 1.347-.373 1.828-.241.489-.601.85-1.082 1.082-.481.24-1.078.361-1.791.361Zm7.854-2.276c-.945 0-1.663-.207-2.152-.622-.481-.423-.721-1.028-.721-1.816v-.485c0-.339.037-.621.112-.845.083-.224.191-.427.323-.61.133-.182.241-.344.324-.485a.87.87 0 0 0 .136-.46c0-.149-.037-.253-.112-.311a.369.369 0 0 0-.273-.099.984.984 0 0 0-.261.037 2.155 2.155 0 0 0-.286.112l-.299-1.169c.232-.124.481-.207.746-.249.274-.049.514-.074.722-.074.364 0 .655.058.87.174.224.116.386.282.485.497.1.216.149.473.149.771 0 .257-.037.485-.112.684-.074.191-.17.39-.286.597-.107.191-.203.369-.286.535-.074.166-.112.406-.112.721v.473c0 .273.038.497.112.671a.818.818 0 0 0 .361.386c.158.075.344.112.56.112.356 0 .609-.095.758-.286.158-.199.237-.464.237-.796v-1.206c0-.249-.059-.444-.175-.585-.107-.149-.294-.224-.559-.224h-.062v-.982h.074c.257 0 .448-.071.572-.212.125-.14.203-.319.237-.534.041-.224.062-.456.062-.697h1.853c0 .506-.067.925-.199 1.256a1.12 1.12 0 0 1-.697.672v.05a.936.936 0 0 1 .684.696c.042.166.062.348.062.547v1.269c0 .82-.24 1.442-.721 1.865-.481.415-1.19.622-2.126.622Zm-2.847-7.922v-.783l1.256-.523h4.439v1.306h-5.695Zm4.104-.758v-1.406h1.591v1.406h-1.591Zm5.702 8.68a7.817 7.817 0 0 1-1.48-.137 8.318 8.318 0 0 1-1.243-.336v-2.686h1.592v1.691c.124.042.277.079.46.112.19.034.385.05.584.05a2.4 2.4 0 0 0 .622-.074.902.902 0 0 0 .435-.287c.108-.14.162-.327.162-.559 0-.199-.046-.357-.137-.473a.85.85 0 0 0-.373-.298 3.483 3.483 0 0 0-.609-.199l-.821-.224a10.336 10.336 0 0 1-1.157-.386 1.862 1.862 0 0 1-.733-.547c-.166-.224-.249-.522-.249-.895 0-.456.12-.821.361-1.094.24-.282.58-.485 1.019-.61.44-.124.958-.186 1.555-.186a6.74 6.74 0 0 1 1.455.136c.414.083.729.17.945.262v1.43a4.298 4.298 0 0 0-.647-.199 7.396 7.396 0 0 0-.883-.187 6.327 6.327 0 0 0-.97-.074c-.182 0-.348.012-.497.037a.954.954 0 0 0-.348.124.286.286 0 0 0-.125.249c0 .133.075.236.224.311.149.066.357.133.622.199.265.058.572.141.92.249.348.107.659.228.933.36.282.125.518.274.709.448a1.7 1.7 0 0 1 .435.634c.099.249.149.547.149.896 0 .431-.091.816-.273 1.156-.174.34-.473.609-.896.808-.423.199-1.003.299-1.741.299Zm6.449-.037c-.505 0-.932-.096-1.28-.286a1.947 1.947 0 0 1-.784-.883c-.174-.39-.261-.867-.261-1.431v-4.34h1.865v4.017c0 .456.091.788.274.995.182.207.448.311.796.311.439 0 .779-.166 1.02-.498.24-.339.36-.862.36-1.566v-3.259h1.866v6.815h-1.418l-.199-1.044h-.112c-.141.331-.386.609-.734.833-.34.224-.804.336-1.393.336Zm7.381-.125v-4.502c0-.348-.083-.601-.249-.758-.157-.158-.418-.236-.783-.236-.274 0-.527.037-.759.111a3.962 3.962 0 0 0-.634.274v-1.492a4.856 4.856 0 0 1 1.94-.373c.456 0 .858.066 1.206.199.357.132.634.356.833.671.208.307.311.73.311 1.269v4.837h-1.865Zm3.464 0v-4.041c0-.954.253-1.679.759-2.177.506-.505 1.306-.758 2.4-.758 1.103 0 1.899.253 2.388.758.497.498.746 1.223.746 2.177v4.041h-1.853v-4.066c0-.44-.104-.784-.311-1.033-.199-.257-.531-.385-.995-.385-.456 0-.788.128-.995.385-.199.249-.298.593-.298 1.033v1.082l.037.012c.158-.323.344-.535.56-.634.224-.108.526-.162.908-.162h.286v1.393h-.286c-.415 0-.73.07-.946.211a1.1 1.1 0 0 0-.447.56 2.384 2.384 0 0 0-.112.759v.845h-1.841Zm9.706 0v-4.502c0-.348-.083-.601-.248-.758-.158-.158-.419-.236-.784-.236-.273 0-.526.037-.758.111a3.973 3.973 0 0 0-.635.274v-1.492a4.862 4.862 0 0 1 1.94-.373c.456 0 .858.066 1.207.199.356.132.634.356.833.671.207.307.311.73.311 1.269v4.837h-1.866Zm5.803.162a6.95 6.95 0 0 1-1.48-.162 5.266 5.266 0 0 1-1.306-.46l.522-1.48c.166.091.365.187.597.286.232.1.485.183.759.249.273.066.551.099.833.099.332 0 .58-.045.746-.136a.485.485 0 0 0 .261-.448.438.438 0 0 0-.174-.361 1.535 1.535 0 0 0-.485-.273 10.328 10.328 0 0 0-.771-.286 7.043 7.043 0 0 1-1.132-.51 2.133 2.133 0 0 1-.733-.672c-.166-.265-.249-.597-.249-.995 0-.456.116-.829.348-1.119.232-.29.56-.506.983-.646.422-.15.916-.224 1.48-.224.464 0 .882.037 1.256.112.373.074.663.17.87.286v1.467a3.782 3.782 0 0 0-.56-.199 5.779 5.779 0 0 0-.733-.162 3.986 3.986 0 0 0-.746-.074c-.34 0-.597.045-.771.137-.175.091-.262.219-.262.385 0 .133.058.245.174.336.125.091.303.178.535.261.232.075.51.17.833.286a5.66 5.66 0 0 1 1.095.497c.298.183.522.407.671.672.158.265.237.593.237.982 0 .374-.087.726-.262 1.058-.165.323-.451.588-.858.795-.406.199-.965.299-1.678.299Z" fill="#0A2540"/></g><path d="m43.021 50.531-.739-2.416h-3.695l-.74 2.416h-2.316l3.582-10.19h2.63l3.595 10.19H43.02Zm-1.99-6.58a53.813 53.813 0 0 0-.184-.611 75.144 75.144 0 0 1-.228-.754 16.285 16.285 0 0 1-.184-.667c-.048.189-.114.426-.2.71-.075.275-.151.54-.227.796a7.291 7.291 0 0 1-.156.526l-.725 2.36h2.643l-.739-2.36Zm8.388 5.031c.237 0 .465-.024.683-.071.218-.047.436-.104.653-.17v1.577a4.476 4.476 0 0 1-.852.242 4.913 4.913 0 0 1-1.095.113c-.464 0-.88-.075-1.25-.227a1.814 1.814 0 0 1-.867-.782c-.209-.379-.313-.9-.313-1.563v-3.738h-1.01v-.895l1.166-.711.611-1.634h1.35v1.648h2.175v1.592h-2.174v3.738c0 .294.085.516.255.668.171.142.394.213.668.213Zm4.71 1.55H52.01V39.73h2.118V50.53Zm5.094-7.917c1.042 0 1.838.227 2.388.682.559.445.838 1.132.838 2.06v5.174h-1.478l-.412-1.051h-.057a3.87 3.87 0 0 1-.682.682c-.227.18-.493.308-.796.383-.294.086-.659.128-1.094.128-.455 0-.867-.085-1.237-.256-.36-.18-.644-.45-.853-.81-.208-.37-.312-.833-.312-1.392 0-.825.289-1.431.867-1.82.578-.398 1.445-.616 2.6-.653l1.35-.043v-.341c0-.407-.108-.706-.326-.895-.209-.19-.502-.285-.881-.285a3.66 3.66 0 0 0-1.109.17c-.36.105-.72.238-1.08.399l-.697-1.436a6.105 6.105 0 0 1 1.38-.511 6.782 6.782 0 0 1 1.59-.185Zm.298 4.349c-.682.019-1.156.142-1.42.37a1.122 1.122 0 0 0-.399.895c0 .322.095.554.284.696.19.133.436.2.74.2.454 0 .838-.133 1.15-.399.313-.274.47-.658.47-1.151v-.64l-.825.029Zm10.209 1.265c0 .52-.123.966-.37 1.336-.246.36-.616.635-1.108.824-.493.19-1.104.284-1.834.284a7.38 7.38 0 0 1-1.393-.113 5.43 5.43 0 0 1-1.165-.341V48.47c.417.19.867.346 1.35.47.483.123.91.184 1.28.184.416 0 .71-.061.88-.185a.562.562 0 0 0 .27-.483.589.589 0 0 0-.113-.355c-.067-.104-.218-.223-.455-.355a11.41 11.41 0 0 0-1.109-.512 8.596 8.596 0 0 1-1.193-.611 2.06 2.06 0 0 1-.697-.74c-.151-.293-.227-.658-.227-1.094 0-.72.28-1.26.838-1.62.56-.36 1.303-.54 2.232-.54.483 0 .942.047 1.378.142a6.38 6.38 0 0 1 1.35.47l-.64 1.52a11.014 11.014 0 0 0-.738-.299 5.174 5.174 0 0 0-.697-.199 3.208 3.208 0 0 0-.682-.07c-.312 0-.55.042-.71.127a.414.414 0 0 0-.228.384c0 .123.038.237.114.341.085.095.242.2.469.313.237.114.583.265 1.037.455.446.18.83.37 1.152.568.322.19.568.431.739.725.18.284.27.658.27 1.123Z" fill="#0A2540"/><g filter="url(#g)"><path fill="#fff" d="M35.531 71.063h60.212v93.319H35.531z"/><path fill="#fff" d="M35.531 71.063h57.212v18H35.531z"/><path d="M51.162 85.187a2.51 2.51 0 0 1-.634-.075 1.855 1.855 0 0 1-.51-.186l.174-1.032a1.147 1.147 0 0 0 .323.05c.141 0 .24-.034.299-.1.066-.075.1-.187.1-.336V82.6c0-.406.082-.721.248-.945.166-.232.419-.39.758-.472l.013-.05-1.356-.485v-.324c0-.406.116-.779.349-1.119.232-.34.58-.61 1.044-.808.464-.207 1.037-.311 1.716-.311.639 0 1.19.1 1.654.298.465.191.821.481 1.07.87.257.382.385.867.385 1.456v4.353H54.93v-4.241c0-.415-.112-.726-.336-.933-.215-.207-.526-.31-.933-.31-.38 0-.667.082-.858.248a.81.81 0 0 0-.31.585l1.081.484-.136.809c-.233 0-.41.079-.535.236-.116.15-.174.394-.174.734v1.044c0 .531-.15.908-.448 1.132-.29.224-.663.336-1.12.336Zm9.037-.124V80.56c0-.349-.083-.601-.248-.759-.158-.157-.42-.236-.784-.236-.273 0-.526.037-.759.112a3.963 3.963 0 0 0-.634.273V78.46a4.859 4.859 0 0 1 1.94-.373c.456 0 .858.066 1.207.199.356.133.634.356.833.672.207.306.31.729.31 1.268v4.838H60.2Zm4.161 0-1.181-6.815h1.815l.336 2.4c.025.199.054.472.087.82.041.34.079.738.112 1.194h.037c.075-.306.141-.584.2-.833.057-.257.111-.485.16-.684.059-.207.109-.385.15-.535l.672-2.362h1.131l.672 2.362c.041.15.087.328.137.535.058.2.116.427.174.684.066.249.132.527.199.833h.037c.041-.456.075-.854.1-1.194.033-.348.066-.621.099-.82l.348-2.4h1.803l-1.168 6.814H68.45l-.783-2.773c-.083-.323-.15-.617-.2-.883a193.15 193.15 0 0 1-.123-.833h-.05c-.033.19-.067.373-.1.547a7.77 7.77 0 0 1-.26 1.17l-.797 2.772H64.36Zm10.54.161c-.489 0-.982-.054-1.48-.162a5.265 5.265 0 0 1-1.305-.46l.522-1.48c.166.092.365.187.597.287.232.099.485.182.758.248.274.067.552.1.834.1.331 0 .58-.046.746-.137a.484.484 0 0 0 .26-.448c0-.149-.057-.27-.173-.36-.108-.1-.27-.191-.485-.274a10.672 10.672 0 0 0-.771-.286 6.946 6.946 0 0 1-1.132-.51 2.136 2.136 0 0 1-.734-.671c-.165-.266-.248-.597-.248-.995 0-.456.116-.83.348-1.12.232-.29.56-.505.982-.646.423-.15.916-.224 1.48-.224.464 0 .883.037 1.256.112.373.075.663.17.87.286v1.467a3.81 3.81 0 0 0-.559-.199 5.642 5.642 0 0 0-.734-.161 3.92 3.92 0 0 0-.746-.075c-.34 0-.597.046-.77.137-.175.091-.262.22-.262.385 0 .133.058.245.174.336.124.091.303.178.535.261.232.075.51.17.833.286.431.15.796.315 1.094.498.299.182.523.406.672.671.157.266.236.593.236.983 0 .373-.087.725-.26 1.057-.167.323-.453.588-.859.796-.406.199-.966.298-1.679.298Zm5.778 0c-.423 0-.821-.05-1.194-.15a4.392 4.392 0 0 1-1.045-.397l.498-1.356c.182.108.402.204.659.287.257.082.51.124.758.124.465 0 .834-.174 1.107-.522.274-.357.41-.888.41-1.592 0-.663-.136-1.17-.41-1.517-.273-.349-.7-.523-1.28-.523-.274 0-.556.042-.846.125-.29.074-.531.17-.722.286v-1.53a4.13 4.13 0 0 1 .87-.274c.324-.066.668-.1 1.033-.1.763 0 1.384.142 1.865.424.481.282.834.688 1.057 1.219.224.522.336 1.152.336 1.89 0 1.177-.27 2.072-.808 2.686-.539.613-1.302.92-2.288.92Zm8.452-.037c-.589 0-1.065-.112-1.43-.336a1.883 1.883 0 0 1-.759-.858h-.1l-.198 1.07h-1.418v-6.815h1.866v3.258c0 .472.053.862.161 1.169.108.298.266.522.473.671.207.15.456.224.746.224.348 0 .613-.103.796-.31.182-.208.273-.54.273-.996v-4.016h1.866v4.427c0 .539-.087.995-.261 1.368-.166.373-.419.659-.759.858-.34.19-.758.286-1.256.286Z" fill="#635BFF"/><path fill="#fff" d="M35.531 96.169h43.212v18H35.531z"/><path d="M53.487 110.293c-.978 0-1.678-.224-2.101-.671-.423-.448-.635-1.087-.635-1.916v-4.352h1.107v4.365c0 .555.133.97.398 1.243.266.274.676.411 1.231.411.564 0 .979-.137 1.244-.411.273-.273.41-.688.41-1.243v-4.365h1.107v4.352c0 .829-.215 1.468-.646 1.916-.423.447-1.128.671-2.115.671Zm6.548 0c-.49 0-.945-.046-1.368-.137a5.78 5.78 0 0 1-1.057-.348l.323-.895c.175.066.373.136.597.211.224.075.465.137.722.187.265.041.534.062.808.062.44 0 .804-.083 1.094-.249.29-.166.436-.406.436-.721a.742.742 0 0 0-.162-.485c-.1-.141-.257-.27-.473-.386a4.877 4.877 0 0 0-.833-.335 9.242 9.242 0 0 1-1.33-.523c-.357-.19-.63-.414-.821-.671-.183-.266-.274-.593-.274-.983 0-.348.091-.655.274-.92.19-.274.48-.485.87-.634.398-.158.904-.237 1.517-.237.398 0 .771.038 1.12.112.356.067.634.162.833.286v.933a4.142 4.142 0 0 0-.535-.199 5.006 5.006 0 0 0-.684-.162 4.733 4.733 0 0 0-.77-.062c-.556 0-.95.087-1.182.261-.224.166-.336.357-.336.572 0 .183.05.336.15.461.107.124.285.244.534.36.257.116.601.249 1.032.398.398.133.763.286 1.094.46.332.174.593.394.784.659.199.257.298.589.298.995 0 .349-.087.676-.26.983-.167.298-.444.543-.834.733-.39.183-.912.274-1.567.274Zm-2.772-8.021v-.485l.908-.398h4.377v.883h-5.285Zm9.491 8.021c-.68 0-1.231-.104-1.654-.311a1.942 1.942 0 0 1-.908-.895c-.182-.398-.273-.879-.273-1.443v-4.29h1.106v4.303c0 .58.137 1.011.41 1.293.274.282.714.423 1.319.423s1.045-.141 1.318-.423c.274-.282.41-.713.41-1.293v-4.303h1.107v4.29c0 .564-.095 1.045-.286 1.443-.182.389-.48.688-.895.895-.415.207-.966.311-1.654.311Zm.759-2.935c-.349 0-.626-.05-.834-.149a.97.97 0 0 1-.422-.41 1.155 1.155 0 0 1-.125-.523c0-.124.017-.253.05-.385.033-.133.079-.245.137-.336l.895.162a.755.755 0 0 0-.05.161.823.823 0 0 0-.025.199c0 .108.03.208.088.299.066.091.178.137.335.137h2.823v.845h-2.872Zm.36-5.086c-.348 0-.626-.05-.833-.149a.991.991 0 0 1-.448-.386.914.914 0 0 1-.15-.497c0-.125.022-.257.063-.398a1.13 1.13 0 0 1 .137-.361l.933.162a.765.765 0 0 0-.05.174.97.97 0 0 0-.025.211c0 .108.033.203.1.286.066.075.178.112.335.112h3.146v.846h-3.208Zm3.764 7.897v-6.815h.771l.199 1.082h.05c.14-.373.398-.668.77-.883.374-.216.826-.324 1.356-.324.498 0 .92.087 1.269.262.356.165.63.422.82.771.191.348.287.8.287 1.355v4.552h-1.107v-4.49c0-.497-.125-.874-.373-1.131-.25-.257-.618-.386-1.107-.386-.39 0-.722.091-.995.274-.274.182-.48.431-.622.746-.14.307-.211.655-.211 1.045v3.942h-1.107Z" fill="#4F5B76"/><path fill="#fff" d="M35.531 121.275h60.212v18H35.531z"/><path d="M52.294 135.399c-.224 0-.44-.037-.647-.112a1.035 1.035 0 0 1-.51-.398c-.133-.19-.199-.456-.199-.796v-5.633h1.107v5.497c0 .19.041.327.124.41.083.083.216.124.398.124.075 0 .154-.008.236-.024.083-.017.162-.038.237-.063l.149.809c-.158.074-.311.124-.46.149-.15.025-.295.037-.435.037Zm2.026-.124v-6.815h.77l.2 1.082h.05c.14-.373.397-.667.77-.883.373-.216.825-.323 1.356-.323.497 0 .92.087 1.268.261.357.166.63.423.821.771.19.348.286.8.286 1.355v4.552h-1.107v-4.489c0-.498-.124-.875-.373-1.132-.248-.257-.617-.386-1.106-.386-.39 0-.722.092-.995.274-.274.182-.481.431-.622.746-.141.307-.212.655-.212 1.045v3.942H54.32Zm10.687.124c-.53 0-.991-.103-1.38-.311a1.679 1.679 0 0 1-.784-.895h-.05l-.062 1.082h-.908v-6.815h1.107v3.942c0 .415.07.78.211 1.095.15.306.361.547.635.721.282.166.617.249 1.007.249.489 0 .854-.129 1.094-.386.24-.257.36-.634.36-1.132v-4.489h1.108v4.564c0 .547-.096.995-.286 1.343a1.781 1.781 0 0 1-.796.784c-.348.165-.767.248-1.256.248Zm5.76 0c-.223 0-.439-.037-.646-.112a1.035 1.035 0 0 1-.51-.398c-.132-.19-.199-.456-.199-.796v-5.633h1.107v5.497c0 .19.041.327.124.41.083.083.216.124.398.124.075 0 .154-.008.237-.024.083-.017.161-.038.236-.063l.15.809c-.158.074-.312.124-.461.149a2.63 2.63 0 0 1-.435.037Zm2.493-.124-1.232-6.815h1.132l.485 2.96c.041.24.083.551.124.932l.15 1.356h.037c.075-.357.145-.676.211-.958l.2-.758.173-.61.834-2.922h.907l.846 2.922c.05.175.104.378.162.61.066.224.132.477.199.758.074.282.149.601.224.958h.05c.05-.522.095-.974.136-1.356.042-.381.083-.692.124-.932l.498-2.96h1.132l-1.232 6.815h-1.082l-1.144-3.706a33.865 33.865 0 0 1-.174-.647c-.05-.224-.1-.518-.149-.883h-.05a7.529 7.529 0 0 1-.236 1.12c-.041.141-.083.277-.124.41l-1.12 3.706H73.26Zm11.768 0v-4.539c0-.539-.125-.92-.373-1.144-.24-.232-.647-.349-1.219-.349a4.08 4.08 0 0 0-1.194.175c-.373.107-.73.261-1.07.46v-1.032c.241-.125.564-.241.97-.349a5.577 5.577 0 0 1 1.394-.161c.439 0 .82.049 1.144.149.323.091.588.232.795.423.216.19.378.435.486.733.107.291.161.635.161 1.033v4.601h-1.094Zm-2.14.124c-.729 0-1.288-.166-1.678-.497-.381-.34-.572-.825-.572-1.455 0-.688.249-1.219.746-1.592.506-.373 1.322-.593 2.45-.659l1.418-.087v.92l-1.269.087c-.846.058-1.43.191-1.753.398-.315.207-.473.51-.473.908 0 .373.116.647.348.821.24.174.572.261.995.261.141 0 .27-.008.386-.025.116-.025.228-.054.335-.087l.175.833c-.158.058-.332.1-.523.125a3.284 3.284 0 0 1-.584.049Zm7.528 0c-.696 0-1.235-.157-1.617-.472-.38-.324-.646-.759-.795-1.306a7.304 7.304 0 0 1-.224-1.89c0-.813.074-1.468.224-1.965.157-.498.385-.858.684-1.082.298-.232.663-.348 1.094-.348.29 0 .535.049.734.149a.837.837 0 0 1 .435.497H91a.789.789 0 0 1 .447-.497c.216-.1.469-.149.759-.149.539 0 .953.145 1.244.435.298.282.447.717.447 1.306v5.198h-1.107v-5.186c0-.323-.07-.543-.211-.659a.813.813 0 0 0-.535-.174c-.24 0-.418.058-.535.174-.107.116-.174.307-.198.572h-.697c-.033-.29-.12-.485-.261-.584a.758.758 0 0 0-.473-.162c-.331 0-.58.195-.746.584-.166.382-.249 1.016-.249 1.903 0 .572.042 1.061.125 1.468.091.406.257.721.497.945.24.215.589.323 1.045.323a2.721 2.721 0 0 0 .721-.087l.112.846a1.598 1.598 0 0 1-.447.124 3.67 3.67 0 0 1-.523.037Z" fill="#4F5B76"/><path fill="#fff" d="M35.531 146.381h49.212v18H35.531z"/><path d="M50.85 160.381v-6.815h1.108v2.948h.037l2.835-2.948h1.294v.038l-4.166 4.216v2.561H50.85Zm4.23 0v-2.4c0-.489-.15-.87-.448-1.144-.299-.273-.792-.41-1.48-.41l.646-.809c.523 0 .958.096 1.306.286.357.183.626.448.808.796.183.349.274.767.274 1.256v2.425h-1.107Zm-.02 3.246v-1.318c0-.207-.092-.311-.274-.311a.654.654 0 0 0-.124.012.676.676 0 0 0-.137.038l-.087-.746c.124-.042.26-.075.41-.1.141-.016.257-.025.348-.025.29 0 .506.067.647.199.133.141.199.332.199.572v1.679h-.983Zm-2.576-11.142v-.548c.166-.033.336-.078.51-.136.174-.067.32-.15.435-.249a.509.509 0 0 0 .175-.386.363.363 0 0 0-.087-.248c-.067-.075-.166-.112-.299-.112a.667.667 0 0 0-.249.049l-.236.087-.249-.684c.166-.132.353-.219.56-.261.199-.041.36-.062.485-.062.332 0 .593.091.783.274a.942.942 0 0 1 .274.696c0 .232-.058.435-.174.61a1.596 1.596 0 0 1-.423.397l-.124-.298h2.475v.871h-3.856Zm7.506 8.021c-.489 0-.912-.083-1.268-.249a1.844 1.844 0 0 1-.809-.783c-.182-.349-.273-.801-.273-1.356v-4.552h1.107v4.49c0 .497.124.874.373 1.131.257.258.626.386 1.107.386.58 0 1.028-.187 1.343-.56.323-.373.485-.874.485-1.504v-3.943h1.106v6.815h-.92l-.05-1.007h-.062c-.149.332-.41.605-.783.821-.365.207-.817.311-1.356.311Zm9.132-.125v-4.539c0-.539-.125-.92-.373-1.144-.24-.232-.647-.348-1.219-.348a4.08 4.08 0 0 0-1.194.174 4.69 4.69 0 0 0-1.07.46v-1.032c.241-.124.564-.24.97-.348a5.53 5.53 0 0 1 1.393-.162c.44 0 .813.05 1.12.149.315.1.547.282.696.548.29.132.49.339.597.621.116.282.174.622.174 1.02v4.601h-1.094Zm-2.14.125c-.729 0-1.288-.166-1.678-.498-.381-.34-.572-.825-.572-1.455 0-.688.249-1.218.746-1.592.506-.373 1.322-.592 2.45-.659l1.418-.087v.921l-1.269.087c-.846.058-1.43.19-1.753.398-.315.207-.473.509-.473.907 0 .373.116.647.348.821.24.174.572.261.995.261.141 0 .27-.008.386-.025.116-.024.228-.053.335-.087l.175.834a2.42 2.42 0 0 1-.523.124c-.182.033-.377.05-.584.05Zm2.426-5.982-.622-.584c.215-.034.419-.117.61-.249a.656.656 0 0 0 .285-.572h1.082c0 .257-.062.485-.186.684-.116.19-.278.348-.485.472a2.332 2.332 0 0 1-.684.249Zm-.434-2.039v-2.624h1.094v2.624h-1.094Zm4.367 8.021c-.323 0-.638-.033-.945-.1a3.753 3.753 0 0 1-.958-.373l.348-.846c.183.108.39.204.622.287.232.074.502.111.808.111.614 0 1.09-.223 1.43-.671.349-.456.523-1.111.523-1.965 0-.837-.178-1.476-.535-1.915-.348-.448-.887-.672-1.617-.672a3.89 3.89 0 0 0-.808.087 2.524 2.524 0 0 0-.721.262v-.933c.24-.124.502-.212.783-.261.29-.05.58-.075.87-.075.747 0 1.352.149 1.816.448.465.29.805.696 1.02 1.219.216.522.324 1.135.324 1.84 0 1.094-.25 1.961-.747 2.599-.489.639-1.227.958-2.213.958Zm6.966 0c-.489 0-.912-.083-1.268-.249a1.844 1.844 0 0 1-.808-.783c-.183-.349-.274-.801-.274-1.356v-4.552h1.107v4.49c0 .497.124.874.373 1.131.257.258.626.386 1.107.386.58 0 1.028-.187 1.343-.56.323-.373.485-.874.485-1.504v-3.943h1.106v6.815h-.92l-.05-1.007h-.062c-.149.332-.41.605-.783.821-.365.207-.817.311-1.356.311Z" fill="#4F5B76"/></g><path stroke="#635BFF" stroke-width="1.777" d="M36.419 71.063v17.765"/></g><defs><filter id="b" x="228.719" y="71.191" width="540.074" height="40.207" filterUnits="userSpaceOnUse" color-interpolation-filters="sRGB"><feFlood flood-opacity="0" result="BackgroundImageFix"/><feColorMatrix in="SourceAlpha" values="0 0 0 0 0 0 0 0 0 0 0 0 0 0 0 0 0 0 127 0" result="hardAlpha"/><feOffset dy=".888"/><feComposite in2="hardAlpha" operator="out"/><feColorMatrix values="0 0 0 0 0.898039 0 0 0 0 0.917647 0 0 0 0 0.941176 0 0 0 1 0"/><feBlend in2="BackgroundImageFix" result="effect1_dropShadow_1167_92974"/><feBlend in="SourceGraphic" in2="effect1_dropShadow_1167_92974" result="shape"/></filter><filter id="c" x="228.719" y="111.398" width="540.074" height="40.207" filterUnits="userSpaceOnUse" color-interpolation-filters="sRGB"><feFlood flood-opacity="0" result="BackgroundImageFix"/><feColorMatrix in="SourceAlpha" values="0 0 0 0 0 0 0 0 0 0 0 0 0 0 0 0 0 0 127 0" result="hardAlpha"/><feOffset dy=".888"/><feComposite in2="hardAlpha" operator="out"/><feColorMatrix values="0 0 0 0 0.898039 0 0 0 0 0.917647 0 0 0 0 0.941176 0 0 0 1 0"/><feBlend in2="BackgroundImageFix" result="effect1_dropShadow_1167_92974"/><feBlend in="SourceGraphic" in2="effect1_dropShadow_1167_92974" result="shape"/></filter><filter id="d" x="228.719" y="151.605" width="540.074" height="40.207" filterUnits="userSpaceOnUse" color-interpolation-filters="sRGB"><feFlood flood-opacity="0" result="BackgroundImageFix"/><feColorMatrix in="SourceAlpha" values="0 0 0 0 0 0 0 0 0 0 0 0 0 0 0 0 0 0 127 0" result="hardAlpha"/><feOffset dy=".888"/><feComposite in2="hardAlpha" operator="out"/><feColorMatrix values="0 0 0 0 0.898039 0 0 0 0 0.917647 0 0 0 0 0.941176 0 0 0 1 0"/><feBlend in2="BackgroundImageFix" result="effect1_dropShadow_1167_92974"/><feBlend in="SourceGraphic" in2="effect1_dropShadow_1167_92974" result="shape"/></filter><filter id="e" x="228.719" y="191.812" width="536.521" height="40.207" filterUnits="userSpaceOnUse" color-interpolation-filters="sRGB"><feFlood flood-opacity="0" result="BackgroundImageFix"/><feColorMatrix in="SourceAlpha" values="0 0 0 0 0 0 0 0 0 0 0 0 0 0 0 0 0 0 127 0" result="hardAlpha"/><feOffset dy=".888"/><feComposite in2="hardAlpha" operator="out"/><feColorMatrix values="0 0 0 0 0.898039 0 0 0 0 0.917647 0 0 0 0 0.941176 0 0 0 1 0"/><feBlend in2="BackgroundImageFix" result="effect1_dropShadow_1167_92974"/><feBlend in="SourceGraphic" in2="effect1_dropShadow_1167_92974" result="shape"/></filter><filter id="f" x="228.719" y="232.019" width="536.521" height="40.207" filterUnits="userSpaceOnUse" color-interpolation-filters="sRGB"><feFlood flood-opacity="0" result="BackgroundImageFix"/><feColorMatrix in="SourceAlpha" values="0 0 0 0 0 0 0 0 0 0 0 0 0 0 0 0 0 0 127 0" result="hardAlpha"/><feOffset dy=".888"/><feComposite in2="hardAlpha" operator="out"/><feColorMatrix values="0 0 0 0 0.898039 0 0 0 0 0.917647 0 0 0 0 0.941176 0 0 0 1 0"/><feBlend in2="BackgroundImageFix" result="effect1_dropShadow_1167_92974"/><feBlend in="SourceGraphic" in2="effect1_dropShadow_1167_92974" result="shape"/></filter><filter id="g" x="35.531" y="71.063" width="60.213" height="93.319" filterUnits="userSpaceOnUse" color-interpolation-filters="sRGB"><feFlood flood-opacity="0" result="BackgroundImageFix"/><feBlend in="SourceGraphic" in2="BackgroundImageFix" result="shape"/><feColorMatrix in="SourceAlpha" values="0 0 0 0 0 0 0 0 0 0 0 0 0 0 0 0 0 0 127 0" result="hardAlpha"/><feOffset dx="1.777"/><feComposite in2="hardAlpha" operator="arithmetic" k2="-1" k3="1"/><feColorMatrix values="0 0 0 0 0.423529 0 0 0 0 0.54902 0 0 0 0 0.670588 0 0 0 0.15 0"/><feBlend in2="shape" result="effect1_innerShadow_1167_92974"/></filter><clipPath id="a"><path d="M0 8a8 8 0 0 1 8-8h426v272H0V8Z" fill="#fff"/></clipPath></defs></svg>